<svg xmlns="http://www.w3.org/2000/svg" role="img" width="2180" height="618" viewBox="-20 -52 2180 650" data-arch-a11y="root" data-arch-a11y-viewbox="-20.0 -20.0 2180.0 618.0"><title>Uljas — järjestelmäkonteksti</title>
<desc>Miten hakijan tietojärjestelmä ja Uljas toimivat yhteen SFTP-sanomarajapinnan kautta?</desc>
<text data-arch-a11y="visible-title" x="-12" y="-32" font-family="sans-serif" font-size="16" font-weight="bold">Uljas — järjestelmäkonteksti</text><rect x="-20.0" y="-20.0" width="2180.0" height="618.0" fill="#ffffff"/><g font-family="Inter, Arial, sans-serif" font-size="14"><g data-dediren-group-id="g-ctx-applicant"><rect x="12.0" y="152.0" width="900.0" height="414.0" rx="8" fill="#f8fafc" stroke="#94a3b8" stroke-width="1"/><text x="20.0" y="168.0" fill="#334155" font-size="12">Hakijan puoli</text></g><g data-dediren-group-id="g-ctx-authority"><rect x="1112.0" y="22.0" width="1016.0" height="514.7" rx="8" fill="#f8fafc" stroke="#94a3b8" stroke-width="1"/><text x="1120.0" y="38.0" fill="#334155" font-size="12">Ulosottolaitos / ORK</text></g><g data-dediren-edge-id="r-actor-hakija"><marker id="marker-start-r-actor-hakija" data-dediren-edge-marker-start="filled_circle" markerWidth="10" markerHeight="10" refX="1" refY="5" orient="auto"><circle cx="5" cy="5" r="3.5" fill="#475569" stroke="#475569" stroke-width="1"/></marker><marker id="marker-end-r-actor-hakija" data-dediren-edge-marker-end="open_arrow" markerWidth="10" markerHeight="10" refX="9" refY="5" orient="auto"><path d="M 1 1 L 9 5 L 1 9" fill="none" stroke="#475569" stroke-width="1.5"/></marker><path d="M 116.0 397.0 L 116.0 421.0 Q 116.0 429.0 124.0 429.0 L 646.8 429.0 Q 654.8 429.0 654.8 437.0 L 654.8 461.0" fill="none" stroke="#475569" stroke-width="1.25" stroke-linecap="round" stroke-linejoin="round" marker-start="url(#marker-start-r-actor-hakija)" marker-end="url(#marker-end-r-actor-hakija)"/><text x="385.4" y="447.0" text-anchor="middle" fill="none" font-size="15.4" font-weight="600" stroke="#ffffff" stroke-width="2">voi toimia</text><text x="385.4" y="447.0" text-anchor="middle" fill="#374151" font-size="15.4" font-weight="600">voi toimia</text></g><g data-dediren-edge-id="r-uljas-provides-if"><marker id="marker-start-r-uljas-provides-if" data-dediren-edge-marker-start="filled_diamond" markerWidth="10" markerHeight="10" refX="1" refY="5" orient="auto"><path d="M 1 5 L 5 1 L 9 5 L 5 9 Z" fill="#475569" stroke="#475569" stroke-width="1"/></marker><path d="M 1492.0 294.8 L 1516.0 294.8 Q 1524.0 294.8 1524.0 286.8 L 1524.0 135.5 Q 1524.0 127.5 1532.0 127.5 L 1813.0 127.5 Q 1821.0 127.5 1821.0 119.5 L 1821.0 85.5 Q 1821.0 77.5 1829.0 77.5 L 1853.0 77.5" fill="none" stroke="#475569" stroke-width="1.25" stroke-linecap="round" stroke-linejoin="round" marker-start="url(#marker-start-r-uljas-provides-if)"/><text x="1508.0" y="256.8" text-anchor="middle" fill="none" font-size="15.4" font-weight="600" stroke="#ffffff" stroke-width="2">tarjoaa</text><text x="1508.0" y="256.8" text-anchor="middle" fill="#374151" font-size="15.4" font-weight="600">tarjoaa</text></g><g data-dediren-edge-id="r-if-serves-hakijasys"><marker id="marker-end-r-if-serves-hakijasys" data-dediren-edge-marker-end="open_arrow" markerWidth="10" markerHeight="10" refX="9" refY="5" orient="auto"><path d="M 1 1 L 9 5 L 1 9" fill="none" stroke="#475569" stroke-width="1.5"/></marker><g data-dediren-line-jump-masks="r-if-serves-hakijasys"><path d="M 1815.0 94.5 Q 1821.0 88.5 1827.0 94.5" fill="none" stroke="#f8fafc" stroke-width="6"/></g><path d="M 1853.0 94.5 L 1827.0 94.5 Q 1821.0 88.5 1815.0 94.5 L 1688.5 94.5 L 1346.0 94.5 L 1092.0 94.5 L 1036.0 94.5 Q 1028.0 94.5 1028.0 102.5 L 1028.0 238.0 Q 1028.0 246.0 1020.0 246.0 L 996.0 246.0 L 932.0 246.0 L 693.5 246.0 L 467.0 246.0" fill="none" stroke="#475569" stroke-width="1.25" stroke-linecap="round" stroke-linejoin="round" marker-end="url(#marker-end-r-if-serves-hakijasys)"/></g><g data-dediren-edge-id="r-hakijasys-serves-hakija"><marker id="marker-end-r-hakijasys-serves-hakija" data-dediren-edge-marker-end="open_arrow" markerWidth="10" markerHeight="10" refX="9" refY="5" orient="auto"><path d="M 1 1 L 9 5 L 1 9" fill="none" stroke="#475569" stroke-width="1.5"/></marker><path d="M 361.0 299.8 L 361.0 361.0 Q 361.0 369.0 369.0 369.0 L 723.2 369.0 Q 731.2 369.0 731.2 377.0 L 731.2 461.0" fill="none" stroke="#475569" stroke-width="1.25" stroke-linecap="round" stroke-linejoin="round" marker-end="url(#marker-end-r-hakijasys-serves-hakija)"/></g><g data-dediren-edge-id="r-flow-out"><marker id="marker-end-r-flow-out" data-dediren-edge-marker-end="open_arrow" markerWidth="10" markerHeight="10" refX="9" refY="5" orient="auto"><path d="M 1 1 L 9 5 L 1 9" fill="none" stroke="#475569" stroke-width="1.5"/></marker><path d="M 467.0 258.8 L 523.0 258.8 Q 531.0 258.8 531.0 266.8 L 531.0 279.0 Q 531.0 287.0 539.0 287.0 L 693.5 287.0 L 932.0 287.0 L 1022.0 287.0 Q 1028.0 287.0 1028.0 293.0 L 1028.0 293.0 Q 1028.0 299.0 1034.0 299.0 L 1092.0 299.0 L 1200.0 299.0" fill="none" stroke="#475569" stroke-width="1.25" stroke-linecap="round" stroke-linejoin="round" marker-end="url(#marker-end-r-flow-out)"/><text x="537.0" y="272.9" text-anchor="start" fill="none" font-size="15.4" font-weight="600" stroke="#ffffff" stroke-width="2">hakemus-/muutosaineisto</text><text x="537.0" y="272.9" text-anchor="start" fill="#374151" font-size="15.4" font-weight="600">hakemus-/muutosaineisto</text></g><g data-dediren-edge-id="r-flow-in"><marker id="marker-end-r-flow-in" data-dediren-edge-marker-end="open_arrow" markerWidth="10" markerHeight="10" refX="9" refY="5" orient="auto"><path d="M 1 1 L 9 5 L 1 9" fill="none" stroke="#475569" stroke-width="1.5"/></marker><path d="M 1200.0 316.0 L 1175.5 316.0 Q 1168.0 316.0 1168.0 323.5 L 1168.0 323.5 Q 1168.0 331.0 1160.5 331.0 L 1092.0 331.0 L 964.0 331.0 L 964.0 328.0 L 932.0 328.0 L 693.5 328.0 L 507.0 328.0 Q 499.0 328.0 499.0 320.0 L 499.0 279.5 Q 499.0 271.5 491.0 271.5 L 467.0 271.5" fill="none" stroke="#475569" stroke-width="1.25" stroke-linecap="round" stroke-linejoin="round" marker-end="url(#marker-end-r-flow-in)"/><text x="902.0" y="329.5" text-anchor="end" fill="none" font-size="15.4" font-weight="600" stroke="#ffffff" stroke-width="2">palautteet, tilitykset, ilmoitukset</text><text x="902.0" y="329.5" text-anchor="end" fill="#374151" font-size="15.4" font-weight="600">palautteet, tilitykset, ilmoitukset</text></g><g data-dediren-edge-id="r-uljas-realizes-vastaanotto"><marker id="marker-end-r-uljas-realizes-vastaanotto" data-dediren-edge-marker-end="hollow_triangle" markerWidth="10" markerHeight="10" refX="9" refY="5" orient="auto"><path d="M 1 1 L 9 5 L 1 9 Z" fill="#ffffff" stroke="#374151" stroke-width="1"/></marker><path d="M 1492.0 307.5 L 1588.0 307.5" fill="none" stroke="#374151" stroke-width="1.5" stroke-linecap="round" stroke-linejoin="round" stroke-dasharray="8 5" marker-end="url(#marker-end-r-uljas-realizes-vastaanotto)"/></g><g data-dediren-edge-id="r-uljas-realizes-palaute"><marker id="marker-end-r-uljas-realizes-palaute" data-dediren-edge-marker-end="hollow_triangle" markerWidth="10" markerHeight="10" refX="9" refY="5" orient="auto"><path d="M 1 1 L 9 5 L 1 9 Z" fill="#ffffff" stroke="#374151" stroke-width="1"/></marker><path d="M 1492.0 320.3 L 1516.0 320.3 Q 1524.0 320.3 1524.0 328.3 L 1524.0 449.5 Q 1524.0 457.5 1532.0 457.5 L 1588.0 457.5" fill="none" stroke="#374151" stroke-width="1.5" stroke-linecap="round" stroke-linejoin="round" stroke-dasharray="8 5" marker-end="url(#marker-end-r-uljas-realizes-palaute)"/></g><g data-dediren-edge-id="r-vastaanotto-serves-hakija"><marker id="marker-end-r-vastaanotto-serves-hakija" data-dediren-edge-marker-end="open_arrow" markerWidth="10" markerHeight="10" refX="9" refY="5" orient="auto"><path d="M 1 1 L 9 5 L 1 9" fill="none" stroke="#475569" stroke-width="1.5"/></marker><g data-dediren-line-jump-masks="r-vastaanotto-serves-hakija"><path d="M 1518.0 379.5 Q 1524.0 373.5 1530.0 379.5" fill="none" stroke="#f8fafc" stroke-width="6"/></g><path d="M 1588.0 327.8 L 1564.0 327.8 Q 1556.0 327.8 1556.0 335.8 L 1556.0 371.5 Q 1556.0 379.5 1548.0 379.5 L 1530.0 379.5 Q 1524.0 373.5 1518.0 379.5 L 1346.0 379.5 L 1092.0 379.5 L 1036.0 379.5 Q 1028.0 379.5 1028.0 387.5 L 1028.0 485.5 Q 1028.0 493.5 1020.0 493.5 L 996.0 493.5 L 932.0 493.5 L 824.0 493.5" fill="none" stroke="#475569" stroke-width="1.25" stroke-linecap="round" stroke-linejoin="round" marker-end="url(#marker-end-r-vastaanotto-serves-hakija)"/></g><g data-dediren-edge-id="r-palaute-serves-hakija"><marker id="marker-end-r-palaute-serves-hakija" data-dediren-edge-marker-end="open_arrow" markerWidth="10" markerHeight="10" refX="9" refY="5" orient="auto"><path d="M 1 1 L 9 5 L 1 9" fill="none" stroke="#475569" stroke-width="1.5"/></marker><path d="M 1588.0 477.8 L 1346.0 477.8 L 1092.0 477.8 L 1068.0 477.8 Q 1060.0 477.8 1060.0 485.8 L 1060.0 526.5 Q 1060.0 534.5 1052.0 534.5 L 996.0 534.5 L 968.5 534.5 Q 964.0 534.5 964.0 530.0 L 964.0 530.0 Q 964.0 525.5 959.5 525.5 L 932.0 525.5 L 863.5 525.5 Q 856.0 525.5 856.0 518.0 L 856.0 518.0 Q 856.0 510.5 848.5 510.5 L 824.0 510.5" fill="none" stroke="#475569" stroke-width="1.25" stroke-linecap="round" stroke-linejoin="round" marker-end="url(#marker-end-r-palaute-serves-hakija)"/></g><g data-dediren-node-id="br-hakija"><rect data-dediren-node-shape="archimate_rectangle" x="563.0" y="462.0" width="260.0" height="80.0" rx="0" fill="#fff2cc" stroke="#d6b656" stroke-width="1.25"/><g data-dediren-node-decorator="archimate_business_role" data-dediren-icon-kind="role" data-dediren-icon-size="22"><path data-dediren-icon-part="side-cylinder" d="M 797.2 475.4 A 3.5 3.5 0 0 0 797.2 482.4 M 797.2 475.4 L 810.4 475.4 M 797.2 482.4 L 810.4 482.4" fill="none" stroke="#d6b656" stroke-width="1.25"/><ellipse data-dediren-icon-part="side-cylinder-end" cx="810.4" cy="478.9" rx="3.5" ry="3.5" fill="#fff2cc" stroke="#d6b656" stroke-width="1.25"/></g><text x="693.0" y="517.5" text-anchor="middle" dominant-baseline="middle" fill="#3f3000" font-size="14.0" textLength="136.5" lengthAdjust="spacing">Tietojärjestelmähakija</text></g><g data-dediren-node-id="br-asiamies"><rect data-dediren-node-shape="archimate_rectangle" x="36.0" y="316.0" width="160.0" height="80.0" rx="0" fill="#fff2cc" stroke="#d6b656" stroke-width="1.25"/><g data-dediren-node-decorator="archimate_business_role" data-dediren-icon-kind="role" data-dediren-icon-size="22"><path data-dediren-icon-part="side-cylinder" d="M 170.2 329.4 A 3.5 3.5 0 0 0 170.2 336.4 M 170.2 329.4 L 183.4 329.4 M 170.2 336.4 L 183.4 336.4" fill="none" stroke="#d6b656" stroke-width="1.25"/><ellipse data-dediren-icon-part="side-cylinder-end" cx="183.4" cy="332.9" rx="3.5" ry="3.5" fill="#fff2cc" stroke="#d6b656" stroke-width="1.25"/></g><text x="116.0" y="371.5" text-anchor="middle" dominant-baseline="middle" fill="#3f3000" font-size="14.0" textLength="56.7" lengthAdjust="spacing">Asiamies</text></g><g data-dediren-node-id="br-valittaja"><rect data-dediren-node-shape="archimate_rectangle" x="36.0" y="176.0" width="160.0" height="80.0" rx="0" fill="#fff2cc" stroke="#d6b656" stroke-width="1.25"/><g data-dediren-node-decorator="archimate_business_role" data-dediren-icon-kind="role" data-dediren-icon-size="22"><path data-dediren-icon-part="side-cylinder" d="M 170.2 189.4 A 3.5 3.5 0 0 0 170.2 196.4 M 170.2 189.4 L 183.4 189.4 M 170.2 196.4 L 183.4 196.4" fill="none" stroke="#d6b656" stroke-width="1.25"/><ellipse data-dediren-icon-part="side-cylinder-end" cx="183.4" cy="192.9" rx="3.5" ry="3.5" fill="#fff2cc" stroke="#d6b656" stroke-width="1.25"/></g><text x="116.0" y="223.5" text-anchor="middle" dominant-baseline="middle" fill="#3f3000" font-size="14.0"><tspan x="116.0" dy="0" textLength="57.5" lengthAdjust="spacing">Tekninen</tspan><tspan x="116.0" dy="16.0" textLength="49.3" lengthAdjust="spacing">välittäjä</tspan></text></g><g data-dediren-node-id="app-hakija-sys"><rect data-dediren-node-shape="archimate_rectangle" x="256.0" y="218.8" width="210.0" height="80.0" rx="0" fill="#e0f2fe" stroke="#0369a1" stroke-width="1.25"/><g data-dediren-node-decorator="archimate_application_component" data-dediren-icon-kind="component" data-dediren-icon-size="22"><rect x="442.0" y="227.8" width="18.0" height="15.8" rx="1.5" fill="#e0f2fe" stroke="#0369a1" stroke-width="1.25"/><rect x="438.0" y="230.4" width="7.9" height="5.7" rx="1.2" fill="#e0f2fe" stroke="#0369a1" stroke-width="1.25"/><rect x="438.0" y="237.4" width="7.9" height="5.7" rx="1.2" fill="#e0f2fe" stroke="#0369a1" stroke-width="1.25"/></g><text x="361.0" y="266.2" text-anchor="middle" dominant-baseline="middle" fill="#0c4a6e" font-size="14.0"><tspan x="361.0" dy="0" textLength="46.6" lengthAdjust="spacing">Hakijan</tspan><tspan x="361.0" dy="16.0" textLength="95.3" lengthAdjust="spacing">tietojärjestelmä</tspan></text></g><g data-dediren-node-id="if-sftp"><rect data-dediren-node-shape="archimate_rectangle" x="1854.0" y="46.0" width="250.0" height="80.0" rx="0" fill="#e0f2fe" stroke="#0369a1" stroke-width="1.25"/><g data-dediren-node-decorator="archimate_application_interface" data-dediren-icon-kind="interface" data-dediren-icon-size="22"><ellipse cx="2091.8" cy="61.2" rx="4.0" ry="4.0" fill="#e0f2fe" stroke="#0369a1" stroke-width="1.25"/><path d="M 2078.2 61.2 L 2087.9 61.2" fill="none" stroke="#0369a1" stroke-width="1.25"/></g><text x="1979.0" y="101.5" text-anchor="middle" dominant-baseline="middle" fill="#0c4a6e" font-size="14.0" textLength="143.9" lengthAdjust="spacing">SFTP-sanomarajapinta</text></g><g data-dediren-node-id="app-uljas"><rect data-dediren-node-shape="archimate_rectangle" x="1201.0" y="267.5" width="290.0" height="80.0" rx="0" fill="#e0f2fe" stroke="#0369a1" stroke-width="1.25"/><g data-dediren-node-decorator="archimate_application_component" data-dediren-icon-kind="component" data-dediren-icon-size="22"><rect x="1467.0" y="276.5" width="18.0" height="15.8" rx="1.5" fill="#e0f2fe" stroke="#0369a1" stroke-width="1.25"/><rect x="1463.0" y="279.1" width="7.9" height="5.7" rx="1.2" fill="#e0f2fe" stroke="#0369a1" stroke-width="1.25"/><rect x="1463.0" y="286.2" width="7.9" height="5.7" rx="1.2" fill="#e0f2fe" stroke="#0369a1" stroke-width="1.25"/></g><text x="1346.0" y="323.0" text-anchor="middle" dominant-baseline="middle" fill="#0c4a6e" font-size="14.0" textLength="153.7" lengthAdjust="spacing">Uljas-ulosottojärjestelmä</text></g><g data-dediren-node-id="node-via"><rect data-dediren-node-shape="archimate_rectangle" x="342.0" y="12.0" width="260.0" height="80.0" rx="0" fill="#d5e8d4" stroke="#4d7c0f" stroke-width="1.25"/><g data-dediren-node-decorator="archimate_technology_node" data-dediren-icon-kind="node" data-dediren-icon-size="22"><rect x="574.0" y="25.0" width="18.0" height="12.8" rx="1.5" fill="#d5e8d4" stroke="#4d7c0f" stroke-width="1.25"/><path data-dediren-icon-part="node-3d-edges" d="M 574.0 25.0 L 578.0 21.0 L 596.0 21.0 L 592.0 25.0 M 592.0 25.0 L 596.0 21.0 M 592.0 37.7 L 596.0 33.8 M 596.0 21.0 L 596.0 33.8" fill="none" stroke="#4d7c0f" stroke-width="1.25" stroke-linejoin="round"/></g><text x="472.0" y="59.5" text-anchor="middle" dominant-baseline="middle" fill="#365314" font-size="14.0"><tspan x="472.0" dy="0" textLength="129.9" lengthAdjust="spacing">VIA-integraatioalusta</tspan><tspan x="472.0" dy="16.0" textLength="93.1" lengthAdjust="spacing">(välityspalvelu)</tspan></text></g><g data-dediren-node-id="ba-ork"><rect data-dediren-node-shape="archimate_rectangle" x="1216.0" y="127.5" width="260.0" height="80.0" rx="0" fill="#fff2cc" stroke="#d6b656" stroke-width="1.25"/><g data-dediren-node-decorator="archimate_business_actor" data-dediren-icon-kind="actor" data-dediren-icon-size="22"><ellipse cx="1459.0" cy="137.9" rx="3.5" ry="4.4" fill="#fff2cc" stroke="#d6b656" stroke-width="1.25"/><path d="M 1459.0 144.1 L 1459.0 149.3 M 1452.8 146.7 L 1459.0 146.3 L 1465.2 146.7 M 1459.0 149.3 L 1453.7 155.5 M 1459.0 149.3 L 1464.3 155.5" fill="none" stroke="#d6b656" stroke-width="1.25" stroke-linecap="round" stroke-linejoin="round"/></g><text x="1346.0" y="183.0" text-anchor="middle" dominant-baseline="middle" fill="#3f3000" font-size="14.0" textLength="179.6" lengthAdjust="spacing">Oikeusrekisterikeskus (ORK)</text></g><g data-dediren-node-id="asvc-vastaanotto"><rect data-dediren-node-shape="archimate_rounded_rectangle" x="1589.0" y="272.7" width="200.0" height="90.0" rx="6" fill="#e0f2fe" stroke="#0369a1" stroke-width="1.25"/><g data-dediren-node-decorator="archimate_application_service" data-dediren-icon-kind="service" data-dediren-icon-size="22"><rect x="1761.0" y="281.7" width="22.0" height="13.6" rx="4.0" fill="#e0f2fe" stroke="#0369a1" stroke-width="1.25"/></g><text x="1689.0" y="317.1" text-anchor="middle" dominant-baseline="middle" fill="#0c4a6e" font-size="14.0"><tspan x="1689.0" dy="0" textLength="78.5" lengthAdjust="spacing">Hakemus- ja</tspan><tspan x="1689.0" dy="16.0" textLength="101.9" lengthAdjust="spacing">muutosaineiston</tspan><tspan x="1689.0" dy="16.0" textLength="72.3" lengthAdjust="spacing">vastaanotto</tspan></text></g><g data-dediren-node-id="asvc-palaute"><rect data-dediren-node-shape="archimate_rounded_rectangle" x="1589.0" y="422.7" width="170.0" height="90.0" rx="6" fill="#e0f2fe" stroke="#0369a1" stroke-width="1.25"/><g data-dediren-node-decorator="archimate_application_service" data-dediren-icon-kind="service" data-dediren-icon-size="22"><rect x="1731.0" y="431.7" width="22.0" height="13.6" rx="4.0" fill="#e0f2fe" stroke="#0369a1" stroke-width="1.25"/></g><text x="1674.0" y="475.1" text-anchor="middle" dominant-baseline="middle" fill="#0c4a6e" font-size="14.0"><tspan x="1674.0" dy="0" textLength="77.8" lengthAdjust="spacing">Palautteet ja</tspan><tspan x="1674.0" dy="16.0" textLength="66.1" lengthAdjust="spacing">ilmoitukset</tspan></text></g></g></svg>
