<svg xmlns="http://www.w3.org/2000/svg" role="img" width="2069" height="572" viewBox="-20 -52 2069 604" data-arch-a11y="root" data-arch-a11y-viewbox="-20.0 -20.0 2069.0 572.0"><title>Tiedonsiirto (SFTP-välityspalvelu)</title>
<desc>Miten XML-aineisto siirtyy SFTP-välityspalvelun (to_uljas/from_uljas) kautta osapuolten välillä?</desc>
<text data-arch-a11y="visible-title" x="-12" y="-32" font-family="sans-serif" font-size="16" font-weight="bold">Tiedonsiirto (SFTP-välityspalvelu)</text><rect x="-20.0" y="-20.0" width="2069.0" height="572.0" fill="#ffffff"/><g font-family="Inter, Arial, sans-serif" font-size="14"><g data-dediren-group-id="g-relay"><rect x="64.0" y="44.0" width="986.0" height="476.0" rx="8" fill="#f8fafc" stroke="#94a3b8" stroke-width="1"/><text x="72.0" y="60.0" fill="#334155" font-size="12">Välityspalvelu (VIA / Valtori)</text></g><g data-dediren-edge-id="r-host-hakija-app"><marker id="marker-start-r-host-hakija-app" data-dediren-edge-marker-start="filled_circle" markerWidth="10" markerHeight="10" refX="1" refY="5" orient="auto"><circle cx="5" cy="5" r="3.5" fill="#475569" stroke="#475569" stroke-width="1"/></marker><marker id="marker-end-r-host-hakija-app" data-dediren-edge-marker-end="open_arrow" markerWidth="10" markerHeight="10" refX="9" refY="5" orient="auto"><path d="M 1 1 L 9 5 L 1 9" fill="none" stroke="#475569" stroke-width="1.5"/></marker><path d="M 1296.0 91.0 L 1360.0 91.0" fill="none" stroke="#475569" stroke-width="1.25" stroke-linecap="round" stroke-linejoin="round" marker-start="url(#marker-start-r-host-hakija-app)" marker-end="url(#marker-end-r-host-hakija-app)"/></g><g data-dediren-edge-id="r-host-uljas-app"><marker id="marker-start-r-host-uljas-app" data-dediren-edge-marker-start="filled_circle" markerWidth="10" markerHeight="10" refX="1" refY="5" orient="auto"><circle cx="5" cy="5" r="3.5" fill="#475569" stroke="#475569" stroke-width="1"/></marker><marker id="marker-end-r-host-uljas-app" data-dediren-edge-marker-end="open_arrow" markerWidth="10" markerHeight="10" refX="9" refY="5" orient="auto"><path d="M 1 1 L 9 5 L 1 9" fill="none" stroke="#475569" stroke-width="1.5"/></marker><path d="M 1662.0 371.0 L 1726.0 371.0" fill="none" stroke="#475569" stroke-width="1.25" stroke-linecap="round" stroke-linejoin="round" marker-start="url(#marker-start-r-host-uljas-app)" marker-end="url(#marker-end-r-host-uljas-app)"/></g><g data-dediren-edge-id="r-via-ss"><marker id="marker-start-r-via-ss" data-dediren-edge-marker-start="filled_circle" markerWidth="10" markerHeight="10" refX="1" refY="5" orient="auto"><circle cx="5" cy="5" r="3.5" fill="#475569" stroke="#475569" stroke-width="1"/></marker><marker id="marker-end-r-via-ss" data-dediren-edge-marker-end="open_arrow" markerWidth="10" markerHeight="10" refX="9" refY="5" orient="auto"><path d="M 1 1 L 9 5 L 1 9" fill="none" stroke="#475569" stroke-width="1.5"/></marker><path d="M 350.0 108.0 L 478.0 108.0" fill="none" stroke="#475569" stroke-width="1.25" stroke-linecap="round" stroke-linejoin="round" marker-start="url(#marker-start-r-via-ss)" marker-end="url(#marker-end-r-via-ss)"/></g><g data-dediren-edge-id="r-ss-realizes-transfer"><marker id="marker-end-r-ss-realizes-transfer" data-dediren-edge-marker-end="hollow_triangle" markerWidth="10" markerHeight="10" refX="9" refY="5" orient="auto"><path d="M 1 1 L 9 5 L 1 9 Z" fill="#ffffff" stroke="#374151" stroke-width="1"/></marker><path d="M 660.0 108.0 L 720.0 108.0" fill="none" stroke="#374151" stroke-width="1.5" stroke-linecap="round" stroke-linejoin="round" stroke-dasharray="8 5" marker-end="url(#marker-end-r-ss-realizes-transfer)"/></g><g data-dediren-edge-id="r-via-to"><marker id="marker-start-r-via-to" data-dediren-edge-marker-start="filled_circle" markerWidth="10" markerHeight="10" refX="1" refY="5" orient="auto"><circle cx="5" cy="5" r="3.5" fill="#475569" stroke="#475569" stroke-width="1"/></marker><marker id="marker-end-r-via-to" data-dediren-edge-marker-end="open_arrow" markerWidth="10" markerHeight="10" refX="9" refY="5" orient="auto"><path d="M 1 1 L 9 5 L 1 9" fill="none" stroke="#475569" stroke-width="1.5"/></marker><path d="M 350.0 124.6 L 438.0 124.6 Q 446.0 124.6 446.0 132.6 L 446.0 245.0 Q 446.0 253.0 454.0 253.0 L 478.0 253.0" fill="none" stroke="#475569" stroke-width="1.25" stroke-linecap="round" stroke-linejoin="round" marker-start="url(#marker-start-r-via-to)" marker-end="url(#marker-end-r-via-to)"/></g><g data-dediren-edge-id="r-via-from"><marker id="marker-start-r-via-from" data-dediren-edge-marker-start="filled_circle" markerWidth="10" markerHeight="10" refX="1" refY="5" orient="auto"><circle cx="5" cy="5" r="3.5" fill="#475569" stroke="#475569" stroke-width="1"/></marker><marker id="marker-end-r-via-from" data-dediren-edge-marker-end="open_arrow" markerWidth="10" markerHeight="10" refX="9" refY="5" orient="auto"><path d="M 1 1 L 9 5 L 1 9" fill="none" stroke="#475569" stroke-width="1.5"/></marker><path d="M 350.0 141.2 L 406.0 141.2 Q 414.0 141.2 414.0 149.2 L 414.0 395.0 Q 414.0 403.0 422.0 403.0 L 478.0 403.0" fill="none" stroke="#475569" stroke-width="1.25" stroke-linecap="round" stroke-linejoin="round" marker-start="url(#marker-start-r-via-from)" marker-end="url(#marker-end-r-via-from)"/></g><g data-dediren-edge-id="r-transfer-serves-hakijahost"><marker id="marker-end-r-transfer-serves-hakijahost" data-dediren-edge-marker-end="open_arrow" markerWidth="10" markerHeight="10" refX="9" refY="5" orient="auto"><path d="M 1 1 L 9 5 L 1 9" fill="none" stroke="#475569" stroke-width="1.5"/></marker><path d="M 962.0 99.5 L 1070.0 99.5 L 1134.0 99.5" fill="none" stroke="#475569" stroke-width="1.25" stroke-linecap="round" stroke-linejoin="round" marker-end="url(#marker-end-r-transfer-serves-hakijahost)"/></g><g data-dediren-edge-id="r-transfer-serves-uljashost"><marker id="marker-end-r-transfer-serves-uljashost" data-dediren-edge-marker-end="open_arrow" markerWidth="10" markerHeight="10" refX="9" refY="5" orient="auto"><path d="M 1 1 L 9 5 L 1 9" fill="none" stroke="#475569" stroke-width="1.5"/></marker><path d="M 962.0 116.5 L 986.5 116.5 Q 994.0 116.5 994.0 124.0 L 994.0 124.0 Q 994.0 131.5 1001.5 131.5 L 1070.0 131.5 L 1094.0 131.5 Q 1102.0 131.5 1102.0 139.5 L 1102.0 354.5 Q 1102.0 362.5 1110.0 362.5 L 1215.0 362.5 L 1360.0 362.5" fill="none" stroke="#475569" stroke-width="1.25" stroke-linecap="round" stroke-linejoin="round" marker-end="url(#marker-end-r-transfer-serves-uljashost)"/></g><g data-dediren-edge-id="r-path-hakija-via"><path d="M 1296.0 108.0 L 1320.0 108.0 Q 1328.0 108.0 1328.0 116.0 L 1328.0 223.0 Q 1328.0 231.0 1336.0 231.0 L 1360.0 231.0" fill="none" stroke="#475569" stroke-width="1.25" stroke-linecap="round" stroke-linejoin="round"/></g><g data-dediren-edge-id="r-path-via"><path d="M 1532.0 231.0 L 1686.0 231.0 Q 1694.0 231.0 1694.0 223.0 L 1694.0 20.0 Q 1694.0 12.0 1686.0 12.0 L 1511.0 12.0 L 1215.0 12.0 L 557.0 12.0 L 20.0 12.0 Q 12.0 12.0 12.0 20.0 L 12.0 124.9 Q 12.0 132.9 20.0 132.9 L 44.0 132.9 L 88.0 132.9" fill="none" stroke="#475569" stroke-width="1.25" stroke-linecap="round" stroke-linejoin="round"/></g><g data-dediren-edge-id="r-via-serves-uljashost"><marker id="marker-end-r-via-serves-uljashost" data-dediren-edge-marker-end="open_arrow" markerWidth="10" markerHeight="10" refX="9" refY="5" orient="auto"><path d="M 1 1 L 9 5 L 1 9" fill="none" stroke="#475569" stroke-width="1.5"/></marker><path d="M 350.0 157.8 L 374.0 157.8 Q 382.0 157.8 382.0 165.8 L 382.0 472.0 Q 382.0 480.0 390.0 480.0 L 569.0 480.0 L 841.0 480.0 L 1070.0 480.0 L 1320.0 480.0 Q 1328.0 480.0 1328.0 472.0 L 1328.0 387.5 Q 1328.0 379.5 1336.0 379.5 L 1360.0 379.5" fill="none" stroke="#475569" stroke-width="1.25" stroke-linecap="round" stroke-linejoin="round" marker-end="url(#marker-end-r-via-serves-uljashost)"/><text x="376.0" y="318.9" text-anchor="end" fill="none" font-size="15.4" font-weight="600" stroke="#ffffff" stroke-width="2">välittää aineiston</text><text x="376.0" y="318.9" text-anchor="end" fill="#374151" font-size="15.4" font-weight="600">välittää aineiston</text></g><g data-dediren-node-id="node-hakija-host"><rect data-dediren-node-shape="archimate_rectangle" x="1135.0" y="59.5" width="160.0" height="80.0" rx="0" fill="#d5e8d4" stroke="#4d7c0f" stroke-width="1.25"/><g data-dediren-node-decorator="archimate_technology_node" data-dediren-icon-kind="node" data-dediren-icon-size="22"><rect x="1267.0" y="72.5" width="18.0" height="12.8" rx="1.5" fill="#d5e8d4" stroke="#4d7c0f" stroke-width="1.25"/><path data-dediren-icon-part="node-3d-edges" d="M 1267.0 72.5 L 1271.0 68.5 L 1289.0 68.5 L 1285.0 72.5 M 1285.0 72.5 L 1289.0 68.5 M 1285.0 85.2 L 1289.0 81.3 M 1289.0 68.5 L 1289.0 81.3" fill="none" stroke="#4d7c0f" stroke-width="1.25" stroke-linejoin="round"/></g><text x="1215.0" y="107.0" text-anchor="middle" dominant-baseline="middle" fill="#365314" font-size="14.0"><tspan x="1215.0" dy="0" textLength="46.6" lengthAdjust="spacing">Hakijan</tspan><tspan x="1215.0" dy="16.0" textLength="61.9" lengthAdjust="spacing">ympäristö</tspan></text></g><g data-dediren-node-id="app-hakija-sys"><rect data-dediren-node-shape="archimate_rectangle" x="1361.0" y="51.0" width="210.0" height="80.0" rx="0" fill="#e0f2fe" stroke="#0369a1" stroke-width="1.25"/><g data-dediren-node-decorator="archimate_application_component" data-dediren-icon-kind="component" data-dediren-icon-size="22"><rect x="1547.0" y="60.0" width="18.0" height="15.8" rx="1.5" fill="#e0f2fe" stroke="#0369a1" stroke-width="1.25"/><rect x="1543.0" y="62.6" width="7.9" height="5.7" rx="1.2" fill="#e0f2fe" stroke="#0369a1" stroke-width="1.25"/><rect x="1543.0" y="69.7" width="7.9" height="5.7" rx="1.2" fill="#e0f2fe" stroke="#0369a1" stroke-width="1.25"/></g><text x="1466.0" y="98.5" text-anchor="middle" dominant-baseline="middle" fill="#0c4a6e" font-size="14.0"><tspan x="1466.0" dy="0" textLength="46.6" lengthAdjust="spacing">Hakijan</tspan><tspan x="1466.0" dy="16.0" textLength="95.3" lengthAdjust="spacing">tietojärjestelmä</tspan></text></g><g data-dediren-node-id="path-sftp"><rect data-dediren-node-shape="archimate_rectangle" x="1361.0" y="191.0" width="170.0" height="80.0" rx="0" fill="#d5e8d4" stroke="#4d7c0f" stroke-width="1.25"/><g data-dediren-node-decorator="archimate_path" data-dediren-icon-kind="path" data-dediren-icon-size="22"><path data-dediren-icon-part="path-line" d="M 1504.8 207.9 L 1523.2 207.9" fill="none" stroke="#4d7c0f" stroke-width="1.25" stroke-dasharray="3 2" stroke-linecap="round"/><path data-dediren-icon-part="path-arrowheads" d="M 1508.5 203.5 L 1504.8 207.9 M 1519.5 203.5 L 1523.2 207.9 M 1508.5 212.3 L 1504.8 207.9 M 1519.5 212.3 L 1523.2 207.9" fill="none" stroke="#4d7c0f" stroke-width="1.25" stroke-linecap="round"/></g><text x="1446.0" y="246.5" text-anchor="middle" dominant-baseline="middle" fill="#365314" font-size="14.0" textLength="80.9" lengthAdjust="spacing">SFTP-yhteys</text></g><g data-dediren-node-id="node-via"><rect data-dediren-node-shape="archimate_rectangle" x="89.0" y="76.9" width="260.0" height="112.0" rx="0" fill="#d5e8d4" stroke="#4d7c0f" stroke-width="1.25"/><g data-dediren-node-decorator="archimate_technology_node" data-dediren-icon-kind="node" data-dediren-icon-size="22"><rect x="321.0" y="89.9" width="18.0" height="12.8" rx="1.5" fill="#d5e8d4" stroke="#4d7c0f" stroke-width="1.25"/><path data-dediren-icon-part="node-3d-edges" d="M 321.0 89.9 L 325.0 85.9 L 343.0 85.9 L 339.0 89.9 M 339.0 89.9 L 343.0 85.9 M 339.0 102.6 L 343.0 98.7 M 343.0 85.9 L 343.0 98.7" fill="none" stroke="#4d7c0f" stroke-width="1.25" stroke-linejoin="round"/></g><text x="219.0" y="140.4" text-anchor="middle" dominant-baseline="middle" fill="#365314" font-size="14.0"><tspan x="219.0" dy="0" textLength="129.9" lengthAdjust="spacing">VIA-integraatioalusta</tspan><tspan x="219.0" dy="16.0" textLength="93.1" lengthAdjust="spacing">(välityspalvelu)</tspan></text></g><g data-dediren-node-id="ss-sftp"><rect data-dediren-node-shape="archimate_rectangle" x="479.0" y="68.0" width="180.0" height="80.0" rx="0" fill="#d5e8d4" stroke="#4d7c0f" stroke-width="1.25"/><g data-dediren-node-decorator="archimate_system_software" data-dediren-icon-kind="system_software" data-dediren-icon-size="22"><ellipse data-dediren-icon-part="system-software-disks" cx="643.8" cy="84.9" rx="5.7" ry="5.7" fill="none" stroke="#4d7c0f" stroke-width="1.25"/><ellipse data-dediren-icon-part="system-software-disks" cx="639.4" cy="88.0" rx="5.7" ry="5.7" fill="#d5e8d4" stroke="#4d7c0f" stroke-width="1.25"/></g><text x="569.0" y="123.5" text-anchor="middle" dominant-baseline="middle" fill="#365314" font-size="14.0" textLength="84.7" lengthAdjust="spacing">SFTP-palvelu</text></g><g data-dediren-node-id="tsvc-transfer"><rect data-dediren-node-shape="archimate_rounded_rectangle" x="721.0" y="68.0" width="240.0" height="80.0" rx="6" fill="#d5e8d4" stroke="#4d7c0f" stroke-width="1.25"/><g data-dediren-node-decorator="archimate_technology_service" data-dediren-icon-kind="service" data-dediren-icon-size="22"><rect x="933.0" y="79.6" width="22.0" height="11.0" rx="4.0" fill="#d5e8d4" stroke="#4d7c0f" stroke-width="1.25"/></g><text x="841.0" y="123.5" text-anchor="middle" dominant-baseline="middle" fill="#365314" font-size="14.0" textLength="165.7" lengthAdjust="spacing">Tiedonsiirtopalvelu (SFTP)</text></g><g data-dediren-node-id="art-to-uljas"><rect data-dediren-node-shape="archimate_rectangle" x="479.0" y="208.0" width="160.0" height="90.0" rx="0" fill="#d5e8d4" stroke="#4d7c0f" stroke-width="1.25"/><g data-dediren-node-decorator="archimate_artifact" data-dediren-icon-kind="artifact" data-dediren-icon-size="22"><path data-dediren-icon-part="artifact-document" d="M 613.2 216.0 L 623.8 216.0 L 629.9 222.2 L 629.9 235.8 L 613.2 235.8 Z M 623.8 216.0 L 623.8 222.2 L 629.9 222.2" fill="#d5e8d4" stroke="#4d7c0f" stroke-width="1.25"/></g><text x="559.0" y="252.4" text-anchor="middle" dominant-baseline="middle" fill="#365314" font-size="14.0"><tspan x="559.0" dy="0" textLength="48.2" lengthAdjust="spacing">to_uljas</tspan><tspan x="559.0" dy="16.0" textLength="51.0" lengthAdjust="spacing">(lähtevä</tspan><tspan x="559.0" dy="16.0" textLength="68.4" lengthAdjust="spacing">hakemisto)</tspan></text></g><g data-dediren-node-id="art-from-uljas"><rect data-dediren-node-shape="archimate_rectangle" x="479.0" y="358.0" width="170.0" height="90.0" rx="0" fill="#d5e8d4" stroke="#4d7c0f" stroke-width="1.25"/><g data-dediren-node-decorator="archimate_artifact" data-dediren-icon-kind="artifact" data-dediren-icon-size="22"><path data-dediren-icon-part="artifact-document" d="M 623.2 366.0 L 633.8 366.0 L 639.9 372.2 L 639.9 385.8 L 623.2 385.8 Z M 633.8 366.0 L 633.8 372.2 L 639.9 372.2" fill="#d5e8d4" stroke="#4d7c0f" stroke-width="1.25"/></g><text x="564.0" y="402.4" text-anchor="middle" dominant-baseline="middle" fill="#365314" font-size="14.0"><tspan x="564.0" dy="0" textLength="64.5" lengthAdjust="spacing">from_uljas</tspan><tspan x="564.0" dy="16.0" textLength="73.9" lengthAdjust="spacing">(noudettava</tspan><tspan x="564.0" dy="16.0" textLength="68.4" lengthAdjust="spacing">hakemisto)</tspan></text></g><g data-dediren-node-id="node-uljas-host"><rect data-dediren-node-shape="archimate_rectangle" x="1361.0" y="331.0" width="300.0" height="80.0" rx="0" fill="#d5e8d4" stroke="#4d7c0f" stroke-width="1.25"/><g data-dediren-node-decorator="archimate_technology_node" data-dediren-icon-kind="node" data-dediren-icon-size="22"><rect x="1633.0" y="344.0" width="18.0" height="12.8" rx="1.5" fill="#d5e8d4" stroke="#4d7c0f" stroke-width="1.25"/><path data-dediren-icon-part="node-3d-edges" d="M 1633.0 344.0 L 1637.0 340.0 L 1655.0 340.0 L 1651.0 344.0 M 1651.0 344.0 L 1655.0 340.0 M 1651.0 356.7 L 1655.0 352.8 M 1655.0 340.0 L 1655.0 352.8" fill="none" stroke="#4d7c0f" stroke-width="1.25" stroke-linejoin="round"/></g><text x="1511.0" y="386.5" text-anchor="middle" dominant-baseline="middle" fill="#365314" font-size="14.0" textLength="210.1" lengthAdjust="spacing">Uljas-järjestelmäympäristö (ORK)</text></g><g data-dediren-node-id="app-uljas"><rect data-dediren-node-shape="archimate_rectangle" x="1727.0" y="331.0" width="290.0" height="80.0" rx="0" fill="#e0f2fe" stroke="#0369a1" stroke-width="1.25"/><g data-dediren-node-decorator="archimate_application_component" data-dediren-icon-kind="component" data-dediren-icon-size="22"><rect x="1993.0" y="340.0" width="18.0" height="15.8" rx="1.5" fill="#e0f2fe" stroke="#0369a1" stroke-width="1.25"/><rect x="1989.0" y="342.6" width="7.9" height="5.7" rx="1.2" fill="#e0f2fe" stroke="#0369a1" stroke-width="1.25"/><rect x="1989.0" y="349.7" width="7.9" height="5.7" rx="1.2" fill="#e0f2fe" stroke="#0369a1" stroke-width="1.25"/></g><text x="1872.0" y="386.5" text-anchor="middle" dominant-baseline="middle" fill="#0c4a6e" font-size="14.0" textLength="153.7" lengthAdjust="spacing">Uljas-ulosottojärjestelmä</text></g></g></svg>
