<svg xmlns="http://www.w3.org/2000/svg" role="img" width="1677" height="678" viewBox="-20 -52 1677 710" data-arch-a11y="root" data-arch-a11y-viewbox="-20.0 -20.0 1677.0 678.0"><title>Ulosottoasian elinkaari</title>
<desc>Miten ulosottoasia etenee vireilletulosta täytäntöönpanon, tilityksen ja passiiviperinnän kautta?</desc>
<text data-arch-a11y="visible-title" x="-12" y="-32" font-family="sans-serif" font-size="16" font-weight="bold">Ulosottoasian elinkaari</text><rect x="-20.0" y="-20.0" width="1677.0" height="678.0" fill="#ffffff"/><g font-family="Inter, Arial, sans-serif" font-size="14"><g data-dediren-edge-id="r-hakemus-trig-vireille"><marker id="marker-end-r-hakemus-trig-vireille" data-dediren-edge-marker-end="open_arrow" markerWidth="10" markerHeight="10" refX="9" refY="5" orient="auto"><path d="M 1 1 L 9 5 L 1 9" fill="none" stroke="#475569" stroke-width="1.5"/></marker><path d="M 173.0 437.5 L 237.0 437.5" fill="none" stroke="#475569" stroke-width="1.25" stroke-linecap="round" stroke-linejoin="round" marker-end="url(#marker-end-r-hakemus-trig-vireille)"/></g><g data-dediren-edge-id="r-vireille-trig-taytantoonpano"><marker id="marker-end-r-vireille-trig-taytantoonpano" data-dediren-edge-marker-end="open_arrow" markerWidth="10" markerHeight="10" refX="9" refY="5" orient="auto"><path d="M 1 1 L 9 5 L 1 9" fill="none" stroke="#475569" stroke-width="1.5"/></marker><path d="M 399.0 429.0 L 455.0 429.0 Q 463.0 429.0 463.0 421.0 L 463.0 82.0 Q 463.0 74.0 471.0 74.0 L 524.5 74.0" fill="none" stroke="#475569" stroke-width="1.25" stroke-linecap="round" stroke-linejoin="round" marker-end="url(#marker-end-r-vireille-trig-taytantoonpano)"/></g><g data-dediren-edge-id="r-muutokset-serves-taytantoonpano"><marker id="marker-end-r-muutokset-serves-taytantoonpano" data-dediren-edge-marker-end="open_arrow" markerWidth="10" markerHeight="10" refX="9" refY="5" orient="auto"><path d="M 1 1 L 9 5 L 1 9" fill="none" stroke="#475569" stroke-width="1.5"/></marker><path d="M 399.0 57.0 L 524.5 57.0" fill="none" stroke="#475569" stroke-width="1.25" stroke-linecap="round" stroke-linejoin="round" marker-end="url(#marker-end-r-muutokset-serves-taytantoonpano)"/></g><g data-dediren-edge-id="r-taytantoonpano-trig-tilitys"><marker id="marker-end-r-taytantoonpano-trig-tilitys" data-dediren-edge-marker-end="open_arrow" markerWidth="10" markerHeight="10" refX="9" refY="5" orient="auto"><path d="M 1 1 L 9 5 L 1 9" fill="none" stroke="#475569" stroke-width="1.5"/></marker><path d="M 716.5 57.0 L 860.0 57.0" fill="none" stroke="#475569" stroke-width="1.25" stroke-linecap="round" stroke-linejoin="round" marker-end="url(#marker-end-r-taytantoonpano-trig-tilitys)"/></g><g data-dediren-edge-id="r-taytantoonpano-trig-passiivi"><marker id="marker-end-r-taytantoonpano-trig-passiivi" data-dediren-edge-marker-end="open_arrow" markerWidth="10" markerHeight="10" refX="9" refY="5" orient="auto"><path d="M 1 1 L 9 5 L 1 9" fill="none" stroke="#475569" stroke-width="1.5"/></marker><path d="M 716.5 74.0 L 770.0 74.0 Q 778.0 74.0 778.0 82.0 L 778.0 194.0 Q 778.0 202.0 786.0 202.0 L 810.0 202.0" fill="none" stroke="#475569" stroke-width="1.25" stroke-linecap="round" stroke-linejoin="round" marker-end="url(#marker-end-r-taytantoonpano-trig-passiivi)"/></g><g data-dediren-edge-id="r-passiivi-trig-loppu"><marker id="marker-end-r-passiivi-trig-loppu" data-dediren-edge-marker-end="open_arrow" markerWidth="10" markerHeight="10" refX="9" refY="5" orient="auto"><path d="M 1 1 L 9 5 L 1 9" fill="none" stroke="#475569" stroke-width="1.5"/></marker><path d="M 1072.0 202.0 L 1132.0 202.0" fill="none" stroke="#475569" stroke-width="1.25" stroke-linecap="round" stroke-linejoin="round" marker-end="url(#marker-end-r-passiivi-trig-loppu)"/></g><g data-dediren-edge-id="r-hakemus-acc-do"><marker id="marker-end-r-hakemus-acc-do" data-dediren-edge-marker-end="open_arrow" markerWidth="10" markerHeight="10" refX="9" refY="5" orient="auto"><path d="M 1 1 L 9 5 L 1 9" fill="none" stroke="#475569" stroke-width="1.5"/></marker><path d="M 173.0 454.5 L 197.0 454.5 Q 205.0 454.5 205.0 462.5 L 205.0 578.0 Q 205.0 586.0 213.0 586.0 L 495.0 586.0" fill="none" stroke="#475569" stroke-width="1.25" stroke-linecap="round" stroke-linejoin="round" stroke-dasharray="8 5" marker-end="url(#marker-end-r-hakemus-acc-do)"/><text x="199.0" y="520.3" text-anchor="end" fill="none" font-size="15.4" font-weight="600" stroke="#ffffff" stroke-width="2">tuottaa</text><text x="199.0" y="520.3" text-anchor="end" fill="#374151" font-size="15.4" font-weight="600">tuottaa</text></g><g data-dediren-edge-id="r-vireille-acc-do"><marker id="marker-end-r-vireille-acc-do" data-dediren-edge-marker-end="open_arrow" markerWidth="10" markerHeight="10" refX="9" refY="5" orient="auto"><path d="M 1 1 L 9 5 L 1 9" fill="none" stroke="#475569" stroke-width="1.5"/></marker><path d="M 399.0 446.0 L 495.0 446.0" fill="none" stroke="#475569" stroke-width="1.25" stroke-linecap="round" stroke-linejoin="round" stroke-dasharray="8 5" marker-end="url(#marker-end-r-vireille-acc-do)"/></g><g data-dediren-edge-id="r-tilitys-acc-do"><marker id="marker-end-r-tilitys-acc-do" data-dediren-edge-marker-end="open_arrow" markerWidth="10" markerHeight="10" refX="9" refY="5" orient="auto"><path d="M 1 1 L 9 5 L 1 9" fill="none" stroke="#475569" stroke-width="1.5"/></marker><path d="M 1022.0 57.0 L 1132.0 57.0" fill="none" stroke="#475569" stroke-width="1.25" stroke-linecap="round" stroke-linejoin="round" stroke-dasharray="8 5" marker-end="url(#marker-end-r-tilitys-acc-do)"/></g><g data-dediren-edge-id="r-muutokset-acc-do"><marker id="marker-end-r-muutokset-acc-do" data-dediren-edge-marker-end="open_arrow" markerWidth="10" markerHeight="10" refX="9" refY="5" orient="auto"><path d="M 1 1 L 9 5 L 1 9" fill="none" stroke="#475569" stroke-width="1.5"/></marker><g data-dediren-line-jump-masks="r-muutokset-acc-do"><path d="M 457.0 342.0 Q 463.0 336.0 469.0 342.0" fill="none" stroke="#ffffff" stroke-width="6"/></g><path d="M 399.0 74.0 L 423.0 74.0 Q 431.0 74.0 431.0 82.0 L 431.0 334.0 Q 431.0 342.0 439.0 342.0 L 457.0 342.0 Q 463.0 336.0 469.0 342.0 L 810.0 342.0" fill="none" stroke="#475569" stroke-width="1.25" stroke-linecap="round" stroke-linejoin="round" stroke-dasharray="8 5" marker-end="url(#marker-end-r-muutokset-acc-do)"/><text x="425.0" y="208.0" text-anchor="end" fill="none" font-size="15.4" font-weight="600" stroke="#ffffff" stroke-width="2">tuottaa</text><text x="425.0" y="208.0" text-anchor="end" fill="#374151" font-size="15.4" font-weight="600">tuottaa</text></g><g data-dediren-edge-id="r-passiivi-loppu-acc-do"><marker id="marker-end-r-passiivi-loppu-acc-do" data-dediren-edge-marker-end="open_arrow" markerWidth="10" markerHeight="10" refX="9" refY="5" orient="auto"><path d="M 1 1 L 9 5 L 1 9" fill="none" stroke="#475569" stroke-width="1.5"/></marker><path d="M 1344.0 202.0 L 1404.0 202.0" fill="none" stroke="#475569" stroke-width="1.25" stroke-linecap="round" stroke-linejoin="round" stroke-dasharray="8 5" marker-end="url(#marker-end-r-passiivi-loppu-acc-do)"/></g><g data-dediren-node-id="bp-toimita-hakemus"><rect data-dediren-node-shape="archimate_rounded_rectangle" x="12.0" y="406.0" width="160.0" height="80.0" rx="6" fill="#fff2cc" stroke="#d6b656" stroke-width="1.25"/><g data-dediren-node-decorator="archimate_business_process" data-dediren-icon-kind="process" data-dediren-icon-size="22"><path data-dediren-icon-part="process-arrow" d="M 144.0 420.3 L 157.6 420.3 L 157.6 415.0 L 166.0 422.9 L 157.6 430.8 L 157.6 425.6 L 144.0 425.6 Z" fill="#fff2cc" stroke="#d6b656" stroke-width="1.25"/></g><text x="92.0" y="453.5" text-anchor="middle" dominant-baseline="middle" fill="#3f3000" font-size="14.0"><tspan x="92.0" dy="0" textLength="45.8" lengthAdjust="spacing">Toimita</tspan><tspan x="92.0" dy="16.0" textLength="77.6" lengthAdjust="spacing">hakemuserä</tspan></text></g><g data-dediren-node-id="be-vireille"><rect data-dediren-node-shape="archimate_rounded_rectangle" x="238.0" y="397.5" width="160.0" height="80.0" rx="6" fill="#fff2cc" stroke="#d6b656" stroke-width="1.25"/><g data-dediren-node-decorator="archimate_business_event" data-dediren-icon-kind="event" data-dediren-icon-size="22"><path data-dediren-icon-part="event-pill" d="M 374.0 407.4 L 386.3 407.4 C 390.7 407.4, 392.0 410.9, 392.0 414.4 C 392.0 417.9, 390.7 421.5, 386.3 421.5 L 374.0 421.5 L 377.5 414.4 L 374.0 407.4 Z" fill="#fff2cc" stroke="#d6b656" stroke-width="1.25"/></g><text x="318.0" y="445.0" text-anchor="middle" dominant-baseline="middle" fill="#3f3000" font-size="14.0"><tspan x="318.0" dy="0" textLength="60.6" lengthAdjust="spacing">Asia tullut</tspan><tspan x="318.0" dy="16.0" textLength="39.6" lengthAdjust="spacing">vireille</tspan></text></g><g data-dediren-node-id="bp-taytantoonpano"><rect data-dediren-node-shape="archimate_rounded_rectangle" x="525.5" y="25.5" width="190.0" height="80.0" rx="6" fill="#fff2cc" stroke="#d6b656" stroke-width="1.25"/><g data-dediren-node-decorator="archimate_business_process" data-dediren-icon-kind="process" data-dediren-icon-size="22"><path data-dediren-icon-part="process-arrow" d="M 687.5 39.8 L 701.1 39.8 L 701.1 34.5 L 709.5 42.4 L 701.1 50.3 L 701.1 45.1 L 687.5 45.1 Z" fill="#fff2cc" stroke="#d6b656" stroke-width="1.25"/></g><text x="620.5" y="73.0" text-anchor="middle" dominant-baseline="middle" fill="#3f3000" font-size="14.0"><tspan x="620.5" dy="0" textLength="118.4" lengthAdjust="spacing">Täytäntöönpano ja</tspan><tspan x="620.5" dy="16.0" textLength="43.4" lengthAdjust="spacing">perintä</tspan></text></g><g data-dediren-node-id="bp-muutokset"><rect data-dediren-node-shape="archimate_rounded_rectangle" x="238.0" y="25.5" width="160.0" height="80.0" rx="6" fill="#fff2cc" stroke="#d6b656" stroke-width="1.25"/><g data-dediren-node-decorator="archimate_business_process" data-dediren-icon-kind="process" data-dediren-icon-size="22"><path data-dediren-icon-part="process-arrow" d="M 370.0 39.8 L 383.6 39.8 L 383.6 34.5 L 392.0 42.4 L 383.6 50.3 L 383.6 45.1 L 370.0 45.1 Z" fill="#fff2cc" stroke="#d6b656" stroke-width="1.25"/></g><text x="318.0" y="73.0" text-anchor="middle" dominant-baseline="middle" fill="#3f3000" font-size="14.0"><tspan x="318.0" dy="0" textLength="41.2" lengthAdjust="spacing">Ilmoita</tspan><tspan x="318.0" dy="16.0" textLength="64.5" lengthAdjust="spacing">muutokset</tspan></text></g><g data-dediren-node-id="bp-tilitys"><rect data-dediren-node-shape="archimate_rounded_rectangle" x="861.0" y="12.0" width="160.0" height="90.0" rx="6" fill="#fff2cc" stroke="#d6b656" stroke-width="1.25"/><g data-dediren-node-decorator="archimate_business_process" data-dediren-icon-kind="process" data-dediren-icon-size="22"><path data-dediren-icon-part="process-arrow" d="M 993.0 26.3 L 1006.6 26.3 L 1006.6 21.0 L 1015.0 28.9 L 1006.6 36.8 L 1006.6 31.6 L 993.0 31.6 Z" fill="#fff2cc" stroke="#d6b656" stroke-width="1.25"/></g><text x="941.0" y="64.5" text-anchor="middle" dominant-baseline="middle" fill="#3f3000" font-size="14.0"><tspan x="941.0" dy="0" textLength="88.3" lengthAdjust="spacing">Tilitä kertymät</tspan><tspan x="941.0" dy="16.0" textLength="57.5" lengthAdjust="spacing">velkojalle</tspan></text></g><g data-dediren-node-id="be-passiivi"><rect data-dediren-node-shape="archimate_rounded_rectangle" x="811.0" y="162.0" width="260.0" height="80.0" rx="6" fill="#fff2cc" stroke="#d6b656" stroke-width="1.25"/><g data-dediren-node-decorator="archimate_business_event" data-dediren-icon-kind="event" data-dediren-icon-size="22"><path data-dediren-icon-part="event-pill" d="M 1047.0 171.9 L 1059.3 171.9 C 1063.7 171.9, 1065.0 175.4, 1065.0 178.9 C 1065.0 182.4, 1063.7 186.0, 1059.3 186.0 L 1047.0 186.0 L 1050.5 178.9 L 1047.0 171.9 Z" fill="#fff2cc" stroke="#d6b656" stroke-width="1.25"/></g><text x="941.0" y="217.5" text-anchor="middle" dominant-baseline="middle" fill="#3f3000" font-size="14.0" textLength="119.6" lengthAdjust="spacing">Passiivirekisteröinti</text></g><g data-dediren-node-id="be-passiivi-loppu"><rect data-dediren-node-shape="archimate_rounded_rectangle" x="1133.0" y="162.0" width="210.0" height="80.0" rx="6" fill="#fff2cc" stroke="#d6b656" stroke-width="1.25"/><g data-dediren-node-decorator="archimate_business_event" data-dediren-icon-kind="event" data-dediren-icon-size="22"><path data-dediren-icon-part="event-pill" d="M 1319.0 171.9 L 1331.3 171.9 C 1335.7 171.9, 1337.0 175.4, 1337.0 178.9 C 1337.0 182.4, 1335.7 186.0, 1331.3 186.0 L 1319.0 186.0 L 1322.5 178.9 L 1319.0 171.9 Z" fill="#fff2cc" stroke="#d6b656" stroke-width="1.25"/></g><text x="1238.0" y="209.5" text-anchor="middle" dominant-baseline="middle" fill="#3f3000" font-size="14.0"><tspan x="1238.0" dy="0" textLength="102.5" lengthAdjust="spacing">Passiiviperinnän</tspan><tspan x="1238.0" dy="16.0" textLength="77.4" lengthAdjust="spacing">päättyminen</tspan></text></g><g data-dediren-node-id="do-hakemusera"><rect data-dediren-node-shape="archimate_rectangle" x="496.0" y="546.0" width="160.0" height="80.0" rx="0" fill="#e0f2fe" stroke="#0369a1" stroke-width="1.25"/><g data-dediren-node-decorator="archimate_data_object" data-dediren-icon-kind="object" data-dediren-icon-size="22"><path data-dediren-icon-part="document-body" d="M 628.0 555.0 L 648.2 555.0 L 648.2 570.8 L 628.0 570.8 Z" fill="#e0f2fe" stroke="#0369a1" stroke-width="1.25"/><path data-dediren-icon-part="document-header" d="M 628.0 559.8 L 648.2 559.8" fill="none" stroke="#0369a1" stroke-width="1.25"/></g><text x="576.0" y="601.5" text-anchor="middle" dominant-baseline="middle" fill="#0c4a6e" font-size="14.0" textLength="79.9" lengthAdjust="spacing">Hakemuserä</text></g><g data-dediren-node-id="do-vireilletulo"><rect data-dediren-node-shape="archimate_rectangle" x="496.0" y="406.0" width="250.0" height="80.0" rx="0" fill="#e0f2fe" stroke="#0369a1" stroke-width="1.25"/><g data-dediren-node-decorator="archimate_data_object" data-dediren-icon-kind="object" data-dediren-icon-size="22"><path data-dediren-icon-part="document-body" d="M 718.0 415.0 L 738.2 415.0 L 738.2 430.8 L 718.0 430.8 Z" fill="#e0f2fe" stroke="#0369a1" stroke-width="1.25"/><path data-dediren-icon-part="document-header" d="M 718.0 419.8 L 738.2 419.8" fill="none" stroke="#0369a1" stroke-width="1.25"/></g><text x="621.0" y="461.5" text-anchor="middle" dominant-baseline="middle" fill="#0c4a6e" font-size="14.0" textLength="112.0" lengthAdjust="spacing">Vireilletuloilmoitus</text></g><g data-dediren-node-id="do-muutosera"><rect data-dediren-node-shape="archimate_rectangle" x="811.0" y="302.0" width="160.0" height="80.0" rx="0" fill="#e0f2fe" stroke="#0369a1" stroke-width="1.25"/><g data-dediren-node-decorator="archimate_data_object" data-dediren-icon-kind="object" data-dediren-icon-size="22"><path data-dediren-icon-part="document-body" d="M 943.0 311.0 L 963.2 311.0 L 963.2 326.8 L 943.0 326.8 Z" fill="#e0f2fe" stroke="#0369a1" stroke-width="1.25"/><path data-dediren-icon-part="document-header" d="M 943.0 315.8 L 963.2 315.8" fill="none" stroke="#0369a1" stroke-width="1.25"/></g><text x="891.0" y="357.5" text-anchor="middle" dominant-baseline="middle" fill="#0c4a6e" font-size="14.0" textLength="66.7" lengthAdjust="spacing">Muutoserä</text></g><g data-dediren-node-id="do-tilitys"><rect data-dediren-node-shape="archimate_rectangle" x="1133.0" y="17.0" width="200.0" height="80.0" rx="0" fill="#e0f2fe" stroke="#0369a1" stroke-width="1.25"/><g data-dediren-node-decorator="archimate_data_object" data-dediren-icon-kind="object" data-dediren-icon-size="22"><path data-dediren-icon-part="document-body" d="M 1305.0 26.0 L 1325.2 26.0 L 1325.2 41.8 L 1305.0 41.8 Z" fill="#e0f2fe" stroke="#0369a1" stroke-width="1.25"/><path data-dediren-icon-part="document-header" d="M 1305.0 30.8 L 1325.2 30.8" fill="none" stroke="#0369a1" stroke-width="1.25"/></g><text x="1233.0" y="72.5" text-anchor="middle" dominant-baseline="middle" fill="#0c4a6e" font-size="14.0" textLength="77.0" lengthAdjust="spacing">Tilityserittely</text></g><g data-dediren-node-id="do-passiivi"><rect data-dediren-node-shape="archimate_rectangle" x="1405.0" y="162.0" width="220.0" height="80.0" rx="0" fill="#e0f2fe" stroke="#0369a1" stroke-width="1.25"/><g data-dediren-node-decorator="archimate_data_object" data-dediren-icon-kind="object" data-dediren-icon-size="22"><path data-dediren-icon-part="document-body" d="M 1597.0 171.0 L 1617.2 171.0 L 1617.2 186.8 L 1597.0 186.8 Z" fill="#e0f2fe" stroke="#0369a1" stroke-width="1.25"/><path data-dediren-icon-part="document-header" d="M 1597.0 175.8 L 1617.2 175.8" fill="none" stroke="#0369a1" stroke-width="1.25"/></g><text x="1515.0" y="209.5" text-anchor="middle" dominant-baseline="middle" fill="#0c4a6e" font-size="14.0"><tspan x="1515.0" dy="0" textLength="102.5" lengthAdjust="spacing">Passiiviperinnän</tspan><tspan x="1515.0" dy="16.0" textLength="108.5" lengthAdjust="spacing">päättymisilmoitus</tspan></text></g></g></svg>
