<svg xmlns="http://www.w3.org/2000/svg" role="img" width="1176" height="1047" viewBox="-20 -52 1176 1079" data-arch-a11y="root" data-arch-a11y-viewbox="-20.0 -20.0 1176.0 1047.0"><title>Sanomaluettelo (in/out)</title>
<desc>Mitä sanomia rajapinta välittää ja mihin suuntaan (in/out) kukin kulkee?</desc>
<text data-arch-a11y="visible-title" x="-12" y="-32" font-family="sans-serif" font-size="16" font-weight="bold">Sanomaluettelo (in/out)</text><rect x="-20.0" y="-20.0" width="1176.0" height="1047.0" fill="#ffffff"/><g font-family="Inter, Arial, sans-serif" font-size="14"><g data-dediren-group-id="g-in"><rect x="12.0" y="157.0" width="309.0" height="548.0" rx="8" fill="#f8fafc" stroke="#94a3b8" stroke-width="1"/><text x="20.0" y="173.0" fill="#334155" font-size="12">Sisään (hakija → Uljas)</text></g><g data-dediren-group-id="g-out"><rect x="485.0" y="12.0" width="639.0" height="983.0" rx="8" fill="#f8fafc" stroke="#94a3b8" stroke-width="1"/><text x="493.0" y="28.0" fill="#334155" font-size="12">Ulos (Uljas → hakija)</text></g><g data-dediren-edge-id="r-pair-hakemus"><path d="M 297.0 501.0 L 341.0 501.0 L 430.5 501.0 Q 433.0 501.0 433.0 503.5 L 433.0 503.5 Q 433.0 506.0 435.5 506.0 L 465.0 506.0 L 509.0 506.0" fill="none" stroke="#475569" stroke-width="1.25" stroke-linecap="round" stroke-linejoin="round"/><text x="427.0" y="503.5" text-anchor="end" fill="none" font-size="15.4" font-weight="600" stroke="#ffffff" stroke-width="2">kuittaa</text><text x="427.0" y="503.5" text-anchor="end" fill="#374151" font-size="15.4" font-weight="600">kuittaa</text></g><g data-dediren-edge-id="r-pair-hakemus-vireille"><path d="M 620.0 547.0 L 620.0 571.0 Q 620.0 579.0 628.0 579.0 L 967.0 579.0 Q 975.0 579.0 975.0 587.0 L 975.0 611.0" fill="none" stroke="#475569" stroke-width="1.25" stroke-linecap="round" stroke-linejoin="round"/><text x="797.5" y="597.0" text-anchor="middle" fill="none" font-size="15.4" font-weight="600" stroke="#ffffff" stroke-width="2">johtaa (vireilletulo)</text><text x="797.5" y="597.0" text-anchor="middle" fill="#374151" font-size="15.4" font-weight="600">johtaa (vireilletulo)</text></g><g data-dediren-edge-id="r-pair-muutos"><path d="M 297.0 221.0 L 341.0 221.0 L 430.5 221.0 Q 433.0 221.0 433.0 218.5 L 433.0 218.5 Q 433.0 216.0 435.5 216.0 L 465.0 216.0 L 509.0 216.0" fill="none" stroke="#475569" stroke-width="1.25" stroke-linecap="round" stroke-linejoin="round"/><text x="427.0" y="218.5" text-anchor="end" fill="none" font-size="15.4" font-weight="600" stroke="#ffffff" stroke-width="2">kuittaa</text><text x="427.0" y="218.5" text-anchor="end" fill="#374151" font-size="15.4" font-weight="600">kuittaa</text></g><g data-dediren-edge-id="r-pair-saldo"><path d="M 509.0 791.0 L 465.0 791.0 L 441.0 791.0 Q 433.0 791.0 433.0 783.0 L 433.0 649.0 Q 433.0 641.0 425.0 641.0 L 341.0 641.0 L 297.0 641.0" fill="none" stroke="#475569" stroke-width="1.25" stroke-linecap="round" stroke-linejoin="round"/><text x="427.0" y="716.0" text-anchor="end" fill="none" font-size="15.4" font-weight="600" stroke="#ffffff" stroke-width="2">vastaus</text><text x="427.0" y="716.0" text-anchor="end" fill="#374151" font-size="15.4" font-weight="600">vastaus</text></g><g data-dediren-edge-id="r-pair-mk"><path d="M 297.0 361.0 L 341.0 361.0 L 465.0 361.0 L 509.0 361.0" fill="none" stroke="#475569" stroke-width="1.25" stroke-linecap="round" stroke-linejoin="round"/><text x="319.0" y="379.0" text-anchor="middle" fill="none" font-size="15.4" font-weight="600" stroke="#ffffff" stroke-width="2">kuittaa</text><text x="319.0" y="379.0" text-anchor="middle" fill="#374151" font-size="15.4" font-weight="600">kuittaa</text></g><g data-dediren-node-id="do-hakemusera"><rect data-dediren-node-shape="archimate_rectangle" x="136.0" y="461.0" width="160.0" height="80.0" rx="0" fill="#e0f2fe" stroke="#0369a1" stroke-width="1.25"/><g data-dediren-node-decorator="archimate_data_object" data-dediren-icon-kind="object" data-dediren-icon-size="22"><path data-dediren-icon-part="document-body" d="M 268.0 470.0 L 288.2 470.0 L 288.2 485.8 L 268.0 485.8 Z" fill="#e0f2fe" stroke="#0369a1" stroke-width="1.25"/><path data-dediren-icon-part="document-header" d="M 268.0 474.8 L 288.2 474.8" fill="none" stroke="#0369a1" stroke-width="1.25"/></g><text x="216.0" y="516.5" text-anchor="middle" dominant-baseline="middle" fill="#0c4a6e" font-size="14.0" textLength="79.9" lengthAdjust="spacing">Hakemuserä</text></g><g data-dediren-node-id="do-hakemuserapalaute"><rect data-dediren-node-shape="archimate_rectangle" x="510.0" y="466.0" width="220.0" height="80.0" rx="0" fill="#e0f2fe" stroke="#0369a1" stroke-width="1.25"/><g data-dediren-node-decorator="archimate_data_object" data-dediren-icon-kind="object" data-dediren-icon-size="22"><path data-dediren-icon-part="document-body" d="M 702.0 475.0 L 722.2 475.0 L 722.2 490.8 L 702.0 490.8 Z" fill="#e0f2fe" stroke="#0369a1" stroke-width="1.25"/><path data-dediren-icon-part="document-header" d="M 702.0 479.8 L 722.2 479.8" fill="none" stroke="#0369a1" stroke-width="1.25"/></g><text x="620.0" y="521.5" text-anchor="middle" dominant-baseline="middle" fill="#0c4a6e" font-size="14.0" textLength="125.8" lengthAdjust="spacing">Hakemuseräpalaute</text></g><g data-dediren-node-id="do-vireilletulo"><rect data-dediren-node-shape="archimate_rectangle" x="850.0" y="612.0" width="250.0" height="80.0" rx="0" fill="#e0f2fe" stroke="#0369a1" stroke-width="1.25"/><g data-dediren-node-decorator="archimate_data_object" data-dediren-icon-kind="object" data-dediren-icon-size="22"><path data-dediren-icon-part="document-body" d="M 1072.0 621.0 L 1092.2 621.0 L 1092.2 636.8 L 1072.0 636.8 Z" fill="#e0f2fe" stroke="#0369a1" stroke-width="1.25"/><path data-dediren-icon-part="document-header" d="M 1072.0 625.8 L 1092.2 625.8" fill="none" stroke="#0369a1" stroke-width="1.25"/></g><text x="975.0" y="667.5" text-anchor="middle" dominant-baseline="middle" fill="#0c4a6e" font-size="14.0" textLength="112.0" lengthAdjust="spacing">Vireilletuloilmoitus</text></g><g data-dediren-node-id="do-muutosera"><rect data-dediren-node-shape="archimate_rectangle" x="136.0" y="181.0" width="160.0" height="80.0" rx="0" fill="#e0f2fe" stroke="#0369a1" stroke-width="1.25"/><g data-dediren-node-decorator="archimate_data_object" data-dediren-icon-kind="object" data-dediren-icon-size="22"><path data-dediren-icon-part="document-body" d="M 268.0 190.0 L 288.2 190.0 L 288.2 205.8 L 268.0 205.8 Z" fill="#e0f2fe" stroke="#0369a1" stroke-width="1.25"/><path data-dediren-icon-part="document-header" d="M 268.0 194.8 L 288.2 194.8" fill="none" stroke="#0369a1" stroke-width="1.25"/></g><text x="216.0" y="236.5" text-anchor="middle" dominant-baseline="middle" fill="#0c4a6e" font-size="14.0" textLength="66.7" lengthAdjust="spacing">Muutoserä</text></g><g data-dediren-node-id="do-muutoserapalaute"><rect data-dediren-node-shape="archimate_rectangle" x="510.0" y="176.0" width="210.0" height="80.0" rx="0" fill="#e0f2fe" stroke="#0369a1" stroke-width="1.25"/><g data-dediren-node-decorator="archimate_data_object" data-dediren-icon-kind="object" data-dediren-icon-size="22"><path data-dediren-icon-part="document-body" d="M 692.0 185.0 L 712.2 185.0 L 712.2 200.8 L 692.0 200.8 Z" fill="#e0f2fe" stroke="#0369a1" stroke-width="1.25"/><path data-dediren-icon-part="document-header" d="M 692.0 189.8 L 712.2 189.8" fill="none" stroke="#0369a1" stroke-width="1.25"/></g><text x="615.0" y="231.5" text-anchor="middle" dominant-baseline="middle" fill="#0c4a6e" font-size="14.0" textLength="112.6" lengthAdjust="spacing">Muutoseräpalaute</text></g><g data-dediren-node-id="do-saldotiedustelu"><rect data-dediren-node-shape="archimate_rectangle" x="510.0" y="751.0" width="200.0" height="80.0" rx="0" fill="#e0f2fe" stroke="#0369a1" stroke-width="1.25"/><g data-dediren-node-decorator="archimate_data_object" data-dediren-icon-kind="object" data-dediren-icon-size="22"><path data-dediren-icon-part="document-body" d="M 682.0 760.0 L 702.2 760.0 L 702.2 775.8 L 682.0 775.8 Z" fill="#e0f2fe" stroke="#0369a1" stroke-width="1.25"/><path data-dediren-icon-part="document-header" d="M 682.0 764.8 L 702.2 764.8" fill="none" stroke="#0369a1" stroke-width="1.25"/></g><text x="610.0" y="806.5" text-anchor="middle" dominant-baseline="middle" fill="#0c4a6e" font-size="14.0" textLength="95.7" lengthAdjust="spacing">Saldotiedustelu</text></g><g data-dediren-node-id="do-saldovastaus"><rect data-dediren-node-shape="archimate_rectangle" x="36.0" y="601.0" width="260.0" height="80.0" rx="0" fill="#e0f2fe" stroke="#0369a1" stroke-width="1.25"/><g data-dediren-node-decorator="archimate_data_object" data-dediren-icon-kind="object" data-dediren-icon-size="22"><path data-dediren-icon-part="document-body" d="M 268.0 610.0 L 288.2 610.0 L 288.2 625.8 L 268.0 625.8 Z" fill="#e0f2fe" stroke="#0369a1" stroke-width="1.25"/><path data-dediren-icon-part="document-header" d="M 268.0 614.8 L 288.2 614.8" fill="none" stroke="#0369a1" stroke-width="1.25"/></g><text x="166.0" y="656.5" text-anchor="middle" dominant-baseline="middle" fill="#0c4a6e" font-size="14.0" textLength="143.9" lengthAdjust="spacing">Saldotiedusteluvastaus</text></g><g data-dediren-node-id="do-tilitys"><rect data-dediren-node-shape="archimate_rectangle" x="519.5" y="891.0" width="200.0" height="80.0" rx="0" fill="#e0f2fe" stroke="#0369a1" stroke-width="1.25"/><g data-dediren-node-decorator="archimate_data_object" data-dediren-icon-kind="object" data-dediren-icon-size="22"><path data-dediren-icon-part="document-body" d="M 691.5 900.0 L 711.7 900.0 L 711.7 915.8 L 691.5 915.8 Z" fill="#e0f2fe" stroke="#0369a1" stroke-width="1.25"/><path data-dediren-icon-part="document-header" d="M 691.5 904.8 L 711.7 904.8" fill="none" stroke="#0369a1" stroke-width="1.25"/></g><text x="619.5" y="946.5" text-anchor="middle" dominant-baseline="middle" fill="#0c4a6e" font-size="14.0" textLength="77.0" lengthAdjust="spacing">Tilityserittely</text></g><g data-dediren-node-id="do-passiivi"><rect data-dediren-node-shape="archimate_rectangle" x="509.5" y="611.0" width="220.0" height="80.0" rx="0" fill="#e0f2fe" stroke="#0369a1" stroke-width="1.25"/><g data-dediren-node-decorator="archimate_data_object" data-dediren-icon-kind="object" data-dediren-icon-size="22"><path data-dediren-icon-part="document-body" d="M 701.5 620.0 L 721.7 620.0 L 721.7 635.8 L 701.5 635.8 Z" fill="#e0f2fe" stroke="#0369a1" stroke-width="1.25"/><path data-dediren-icon-part="document-header" d="M 701.5 624.8 L 721.7 624.8" fill="none" stroke="#0369a1" stroke-width="1.25"/></g><text x="619.5" y="658.5" text-anchor="middle" dominant-baseline="middle" fill="#0c4a6e" font-size="14.0"><tspan x="619.5" dy="0" textLength="102.5" lengthAdjust="spacing">Passiiviperinnän</tspan><tspan x="619.5" dy="16.0" textLength="108.5" lengthAdjust="spacing">päättymisilmoitus</tspan></text></g><g data-dediren-node-id="do-maksukiellot"><rect data-dediren-node-shape="archimate_rectangle" x="529.5" y="36.0" width="180.0" height="80.0" rx="0" fill="#e0f2fe" stroke="#0369a1" stroke-width="1.25"/><g data-dediren-node-decorator="archimate_data_object" data-dediren-icon-kind="object" data-dediren-icon-size="22"><path data-dediren-icon-part="document-body" d="M 681.5 45.0 L 701.7 45.0 L 701.7 60.8 L 681.5 60.8 Z" fill="#e0f2fe" stroke="#0369a1" stroke-width="1.25"/><path data-dediren-icon-part="document-header" d="M 681.5 49.8 L 701.7 49.8" fill="none" stroke="#0369a1" stroke-width="1.25"/></g><text x="619.5" y="91.5" text-anchor="middle" dominant-baseline="middle" fill="#0c4a6e" font-size="14.0" textLength="77.0" lengthAdjust="spacing">Maksukiellot</text></g><g data-dediren-node-id="do-mk-palauttaminen"><rect data-dediren-node-shape="archimate_rectangle" x="106.0" y="321.0" width="190.0" height="80.0" rx="0" fill="#e0f2fe" stroke="#0369a1" stroke-width="1.25"/><g data-dediren-node-decorator="archimate_data_object" data-dediren-icon-kind="object" data-dediren-icon-size="22"><path data-dediren-icon-part="document-body" d="M 268.0 330.0 L 288.2 330.0 L 288.2 345.8 L 268.0 345.8 Z" fill="#e0f2fe" stroke="#0369a1" stroke-width="1.25"/><path data-dediren-icon-part="document-header" d="M 268.0 334.8 L 288.2 334.8" fill="none" stroke="#0369a1" stroke-width="1.25"/></g><text x="201.0" y="368.5" text-anchor="middle" dominant-baseline="middle" fill="#0c4a6e" font-size="14.0"><tspan x="201.0" dy="0" textLength="80.9" lengthAdjust="spacing">Maksukiellon</tspan><tspan x="201.0" dy="16.0" textLength="87.9" lengthAdjust="spacing">palauttaminen</tspan></text></g><g data-dediren-node-id="do-mk-palaute"><rect data-dediren-node-shape="archimate_rectangle" x="510.0" y="316.0" width="190.0" height="90.0" rx="0" fill="#e0f2fe" stroke="#0369a1" stroke-width="1.25"/><g data-dediren-node-decorator="archimate_data_object" data-dediren-icon-kind="object" data-dediren-icon-size="22"><path data-dediren-icon-part="document-body" d="M 672.0 325.0 L 692.2 325.0 L 692.2 340.8 L 672.0 340.8 Z" fill="#e0f2fe" stroke="#0369a1" stroke-width="1.25"/><path data-dediren-icon-part="document-header" d="M 672.0 329.8 L 692.2 329.8" fill="none" stroke="#0369a1" stroke-width="1.25"/></g><text x="605.0" y="360.4" text-anchor="middle" dominant-baseline="middle" fill="#0c4a6e" font-size="14.0"><tspan x="605.0" dy="0" textLength="80.9" lengthAdjust="spacing">Maksukiellon</tspan><tspan x="605.0" dy="16.0" textLength="87.1" lengthAdjust="spacing">palauttamisen</tspan><tspan x="605.0" dy="16.0" textLength="45.9" lengthAdjust="spacing">palaute</tspan></text></g></g></svg>
