<svg xmlns="http://www.w3.org/2000/svg" role="img" width="2685" height="518" viewBox="-20 -52 2685 550" data-arch-a11y="root" data-arch-a11y-viewbox="-20.0 -20.0 2685.0 518.0"><title>Tietojärjestelmähakijaksi liittyminen</title>
<desc>Mitkä vaiheet vievät tietojärjestelmähakijan luvasta tuotantokäyttöön?</desc>
<text data-arch-a11y="visible-title" x="-12" y="-32" font-family="sans-serif" font-size="16" font-weight="bold">Tietojärjestelmähakijaksi liittyminen</text><rect x="-20.0" y="-20.0" width="2685.0" height="518.0" fill="#ffffff"/><g font-family="Inter, Arial, sans-serif" font-size="14"><g data-dediren-edge-id="r-hakija-does-lupahaku"><marker id="marker-start-r-hakija-does-lupahaku" data-dediren-edge-marker-start="filled_circle" markerWidth="10" markerHeight="10" refX="1" refY="5" orient="auto"><circle cx="5" cy="5" r="3.5" fill="#475569" stroke="#475569" stroke-width="1"/></marker><marker id="marker-end-r-hakija-does-lupahaku" data-dediren-edge-marker-end="open_arrow" markerWidth="10" markerHeight="10" refX="9" refY="5" orient="auto"><path d="M 1 1 L 9 5 L 1 9" fill="none" stroke="#475569" stroke-width="1.5"/></marker><path d="M 306.0 115.5 L 330.0 115.5 Q 338.0 115.5 338.0 107.5 L 338.0 60.0 Q 338.0 52.0 346.0 52.0 L 370.0 52.0" fill="none" stroke="#475569" stroke-width="1.25" stroke-linecap="round" stroke-linejoin="round" marker-start="url(#marker-start-r-hakija-does-lupahaku)" marker-end="url(#marker-end-r-hakija-does-lupahaku)"/></g><g data-dediren-edge-id="r-ulosotto-luonnos"><marker id="marker-start-r-ulosotto-luonnos" data-dediren-edge-marker-start="filled_circle" markerWidth="10" markerHeight="10" refX="1" refY="5" orient="auto"><circle cx="5" cy="5" r="3.5" fill="#475569" stroke="#475569" stroke-width="1"/></marker><marker id="marker-end-r-ulosotto-luonnos" data-dediren-edge-marker-end="open_arrow" markerWidth="10" markerHeight="10" refX="9" refY="5" orient="auto"><path d="M 1 1 L 9 5 L 1 9" fill="none" stroke="#475569" stroke-width="1.5"/></marker><path d="M 642.0 344.5 L 666.0 344.5 Q 674.0 344.5 674.0 336.5 L 674.0 77.0 Q 674.0 69.0 682.0 69.0 L 706.0 69.0" fill="none" stroke="#475569" stroke-width="1.25" stroke-linecap="round" stroke-linejoin="round" marker-start="url(#marker-start-r-ulosotto-luonnos)" marker-end="url(#marker-end-r-ulosotto-luonnos)"/></g><g data-dediren-edge-id="r-hakija-lomakkeet"><marker id="marker-start-r-hakija-lomakkeet" data-dediren-edge-marker-start="filled_circle" markerWidth="10" markerHeight="10" refX="1" refY="5" orient="auto"><circle cx="5" cy="5" r="3.5" fill="#475569" stroke="#475569" stroke-width="1"/></marker><marker id="marker-end-r-hakija-lomakkeet" data-dediren-edge-marker-end="open_arrow" markerWidth="10" markerHeight="10" refX="9" refY="5" orient="auto"><path d="M 1 1 L 9 5 L 1 9" fill="none" stroke="#475569" stroke-width="1.5"/></marker><g data-dediren-line-jump-masks="r-hakija-lomakkeet"><path d="M 668.0 132.5 Q 674.0 126.5 680.0 132.5" fill="none" stroke="#ffffff" stroke-width="6"/></g><path d="M 306.0 132.5 L 506.0 132.5 L 668.0 132.5 Q 674.0 126.5 680.0 132.5 L 792.0 132.5 L 951.5 132.5" fill="none" stroke="#475569" stroke-width="1.25" stroke-linecap="round" stroke-linejoin="round" marker-start="url(#marker-start-r-hakija-lomakkeet)" marker-end="url(#marker-end-r-hakija-lomakkeet)"/></g><g data-dediren-edge-id="r-ork-testaus"><marker id="marker-start-r-ork-testaus" data-dediren-edge-marker-start="filled_circle" markerWidth="10" markerHeight="10" refX="1" refY="5" orient="auto"><circle cx="5" cy="5" r="3.5" fill="#475569" stroke="#475569" stroke-width="1"/></marker><marker id="marker-end-r-ork-testaus" data-dediren-edge-marker-end="open_arrow" markerWidth="10" markerHeight="10" refX="9" refY="5" orient="auto"><path d="M 1 1 L 9 5 L 1 9" fill="none" stroke="#475569" stroke-width="1.5"/></marker><path d="M 1203.0 281.0 L 1283.3 281.0" fill="none" stroke="#475569" stroke-width="1.25" stroke-linecap="round" stroke-linejoin="round" marker-start="url(#marker-start-r-ork-testaus)" marker-end="url(#marker-end-r-ork-testaus)"/></g><g data-dediren-edge-id="r-ulosotto-paatos"><marker id="marker-start-r-ulosotto-paatos" data-dediren-edge-marker-start="filled_circle" markerWidth="10" markerHeight="10" refX="1" refY="5" orient="auto"><circle cx="5" cy="5" r="3.5" fill="#475569" stroke="#475569" stroke-width="1"/></marker><marker id="marker-end-r-ulosotto-paatos" data-dediren-edge-marker-end="open_arrow" markerWidth="10" markerHeight="10" refX="9" refY="5" orient="auto"><path d="M 1 1 L 9 5 L 1 9" fill="none" stroke="#475569" stroke-width="1.5"/></marker><path d="M 642.0 361.5 L 792.0 361.5 L 1072.5 361.5 L 1387.5 361.5 L 1572.0 361.5" fill="none" stroke="#475569" stroke-width="1.25" stroke-linecap="round" stroke-linejoin="round" marker-start="url(#marker-start-r-ulosotto-paatos)" marker-end="url(#marker-end-r-ulosotto-paatos)"/></g><g data-dediren-edge-id="r-ork-tuotanto"><marker id="marker-start-r-ork-tuotanto" data-dediren-edge-marker-start="filled_circle" markerWidth="10" markerHeight="10" refX="1" refY="5" orient="auto"><circle cx="5" cy="5" r="3.5" fill="#475569" stroke="#475569" stroke-width="1"/></marker><marker id="marker-end-r-ork-tuotanto" data-dediren-edge-marker-end="open_arrow" markerWidth="10" markerHeight="10" refX="9" refY="5" orient="auto"><path d="M 1 1 L 9 5 L 1 9" fill="none" stroke="#475569" stroke-width="1.5"/></marker><g data-dediren-line-jump-masks="r-ork-tuotanto"><path d="M 1235.0 355.5 Q 1241.0 361.5 1235.0 367.5" fill="none" stroke="#ffffff" stroke-width="6"/></g><path d="M 1203.0 298.0 L 1227.0 298.0 Q 1235.0 298.0 1235.0 306.0 L 1235.0 355.5 Q 1241.0 361.5 1235.0 367.5 L 1235.0 417.0 Q 1235.0 425.0 1243.0 425.0 L 1387.5 425.0 L 1653.0 425.0 L 1790.0 425.0 Q 1798.0 425.0 1798.0 417.0 L 1798.0 229.5 Q 1798.0 221.5 1806.0 221.5 L 1830.0 221.5" fill="none" stroke="#475569" stroke-width="1.25" stroke-linecap="round" stroke-linejoin="round" marker-start="url(#marker-start-r-ork-tuotanto)" marker-end="url(#marker-end-r-ork-tuotanto)"/></g><g data-dediren-edge-id="r-trig-haku-luonnos"><marker id="marker-end-r-trig-haku-luonnos" data-dediren-edge-marker-end="open_arrow" markerWidth="10" markerHeight="10" refX="9" refY="5" orient="auto"><path d="M 1 1 L 9 5 L 1 9" fill="none" stroke="#475569" stroke-width="1.5"/></marker><path d="M 642.0 52.0 L 706.0 52.0" fill="none" stroke="#475569" stroke-width="1.25" stroke-linecap="round" stroke-linejoin="round" marker-end="url(#marker-end-r-trig-haku-luonnos)"/></g><g data-dediren-edge-id="r-trig-luonnos-lomakkeet"><marker id="marker-end-r-trig-luonnos-lomakkeet" data-dediren-edge-marker-end="open_arrow" markerWidth="10" markerHeight="10" refX="9" refY="5" orient="auto"><path d="M 1 1 L 9 5 L 1 9" fill="none" stroke="#475569" stroke-width="1.5"/></marker><path d="M 878.0 60.5 L 902.0 60.5 Q 910.0 60.5 910.0 68.5 L 910.0 107.5 Q 910.0 115.5 918.0 115.5 L 951.5 115.5" fill="none" stroke="#475569" stroke-width="1.25" stroke-linecap="round" stroke-linejoin="round" marker-end="url(#marker-end-r-trig-luonnos-lomakkeet)"/></g><g data-dediren-edge-id="r-trig-lomakkeet-testaus"><marker id="marker-end-r-trig-lomakkeet-testaus" data-dediren-edge-marker-end="open_arrow" markerWidth="10" markerHeight="10" refX="9" refY="5" orient="auto"><path d="M 1 1 L 9 5 L 1 9" fill="none" stroke="#475569" stroke-width="1.5"/></marker><path d="M 1193.5 115.5 L 1227.0 115.5 Q 1235.0 115.5 1235.0 123.5 L 1235.0 256.0 Q 1235.0 264.0 1243.0 264.0 L 1283.3 264.0" fill="none" stroke="#475569" stroke-width="1.25" stroke-linecap="round" stroke-linejoin="round" marker-end="url(#marker-end-r-trig-lomakkeet-testaus)"/></g><g data-dediren-edge-id="r-trig-testaus-paatos"><marker id="marker-end-r-trig-testaus-paatos" data-dediren-edge-marker-end="open_arrow" markerWidth="10" markerHeight="10" refX="9" refY="5" orient="auto"><path d="M 1 1 L 9 5 L 1 9" fill="none" stroke="#475569" stroke-width="1.5"/></marker><path d="M 1475.3 272.5 L 1532.0 272.5 Q 1540.0 272.5 1540.0 280.5 L 1540.0 336.5 Q 1540.0 344.5 1548.0 344.5 L 1572.0 344.5" fill="none" stroke="#475569" stroke-width="1.25" stroke-linecap="round" stroke-linejoin="round" marker-end="url(#marker-end-r-trig-testaus-paatos)"/></g><g data-dediren-edge-id="r-trig-paatos-tuotanto"><marker id="marker-end-r-trig-paatos-tuotanto" data-dediren-edge-marker-end="open_arrow" markerWidth="10" markerHeight="10" refX="9" refY="5" orient="auto"><path d="M 1 1 L 9 5 L 1 9" fill="none" stroke="#475569" stroke-width="1.5"/></marker><path d="M 1734.0 344.5 L 1758.0 344.5 Q 1766.0 344.5 1766.0 336.5 L 1766.0 212.5 Q 1766.0 204.5 1774.0 204.5 L 1830.0 204.5" fill="none" stroke="#475569" stroke-width="1.25" stroke-linecap="round" stroke-linejoin="round" marker-end="url(#marker-end-r-trig-paatos-tuotanto)"/></g><g data-dediren-edge-id="r-paatos-lupa"><marker id="marker-end-r-paatos-lupa" data-dediren-edge-marker-end="open_arrow" markerWidth="10" markerHeight="10" refX="9" refY="5" orient="auto"><path d="M 1 1 L 9 5 L 1 9" fill="none" stroke="#475569" stroke-width="1.5"/></marker><g data-dediren-line-jump-masks="r-paatos-lupa"><path d="M 1792.0 361.5 Q 1798.0 355.5 1804.0 361.5" fill="none" stroke="#ffffff" stroke-width="6"/></g><path d="M 1734.0 361.5 L 1792.0 361.5 Q 1798.0 355.5 1804.0 361.5 L 2086.0 361.5" fill="none" stroke="#475569" stroke-width="1.25" stroke-linecap="round" stroke-linejoin="round" stroke-dasharray="8 5" marker-end="url(#marker-end-r-paatos-lupa)"/><text x="1910.0" y="379.5" text-anchor="middle" fill="none" font-size="15.4" font-weight="600" stroke="#ffffff" stroke-width="2">myöntää</text><text x="1910.0" y="379.5" text-anchor="middle" fill="#374151" font-size="15.4" font-weight="600">myöntää</text></g><g data-dediren-edge-id="r-lomakkeet-liikennointi"><marker id="marker-end-r-lomakkeet-liikennointi" data-dediren-edge-marker-end="open_arrow" markerWidth="10" markerHeight="10" refX="9" refY="5" orient="auto"><path d="M 1 1 L 9 5 L 1 9" fill="none" stroke="#475569" stroke-width="1.5"/></marker><g data-dediren-line-jump-masks="r-lomakkeet-liikennointi"><path d="M 1229.0 132.5 Q 1235.0 126.5 1241.0 132.5" fill="none" stroke="#ffffff" stroke-width="6"/></g><path d="M 1193.5 132.5 L 1229.0 132.5 Q 1235.0 126.5 1241.0 132.5 L 1267.0 132.5" fill="none" stroke="#475569" stroke-width="1.25" stroke-linecap="round" stroke-linejoin="round" stroke-dasharray="8 5" marker-end="url(#marker-end-r-lomakkeet-liikennointi)"/></g><g data-dediren-edge-id="r-tuotanto-tunnus"><marker id="marker-end-r-tuotanto-tunnus" data-dediren-edge-marker-end="open_arrow" markerWidth="10" markerHeight="10" refX="9" refY="5" orient="auto"><path d="M 1 1 L 9 5 L 1 9" fill="none" stroke="#475569" stroke-width="1.5"/></marker><path d="M 2022.0 204.5 L 2046.0 204.5 Q 2054.0 204.5 2054.0 196.5 L 2054.0 128.5 Q 2054.0 120.5 2062.0 120.5 L 2442.0 120.5" fill="none" stroke="#475569" stroke-width="1.25" stroke-linecap="round" stroke-linejoin="round" stroke-dasharray="8 5" marker-end="url(#marker-end-r-tuotanto-tunnus)"/><text x="2038.0" y="166.5" text-anchor="middle" fill="none" font-size="15.4" font-weight="600" stroke="#ffffff" stroke-width="2">aktivoi</text><text x="2038.0" y="166.5" text-anchor="middle" fill="#374151" font-size="15.4" font-weight="600">aktivoi</text></g><g data-dediren-edge-id="r-tuotanto-realizes-tjhaku"><marker id="marker-end-r-tuotanto-realizes-tjhaku" data-dediren-edge-marker-end="hollow_triangle" markerWidth="10" markerHeight="10" refX="9" refY="5" orient="auto"><path d="M 1 1 L 9 5 L 1 9 Z" fill="#ffffff" stroke="#374151" stroke-width="1"/></marker><path d="M 2022.0 221.5 L 2086.0 221.5" fill="none" stroke="#374151" stroke-width="1.5" stroke-linecap="round" stroke-linejoin="round" stroke-dasharray="8 5" marker-end="url(#marker-end-r-tuotanto-realizes-tjhaku)"/></g><g data-dediren-edge-id="r-tjhaku-serves-hakija"><marker id="marker-end-r-tjhaku-serves-hakija" data-dediren-edge-marker-end="open_arrow" markerWidth="10" markerHeight="10" refX="9" refY="5" orient="auto"><path d="M 1 1 L 9 5 L 1 9" fill="none" stroke="#475569" stroke-width="1.5"/></marker><path d="M 2378.0 221.5 L 2402.0 221.5 Q 2410.0 221.5 2410.0 229.5 L 2410.0 458.0 Q 2410.0 466.0 2402.0 466.0 L 2232.0 466.0 L 1926.0 466.0 L 1653.0 466.0 L 1387.5 466.0 L 1072.5 466.0 L 792.0 466.0 L 506.0 466.0 L 175.0 466.0 L 20.0 466.0 Q 12.0 466.0 12.0 458.0 L 12.0 132.0 Q 12.0 124.0 20.0 124.0 L 44.0 124.0" fill="none" stroke="#475569" stroke-width="1.25" stroke-linecap="round" stroke-linejoin="round" marker-end="url(#marker-end-r-tjhaku-serves-hakija)"/></g><g data-dediren-node-id="br-hakija"><rect data-dediren-node-shape="archimate_rectangle" x="45.0" y="84.0" width="260.0" height="80.0" rx="0" fill="#fff2cc" stroke="#d6b656" stroke-width="1.25"/><g data-dediren-node-decorator="archimate_business_role" data-dediren-icon-kind="role" data-dediren-icon-size="22"><path data-dediren-icon-part="side-cylinder" d="M 279.2 97.4 A 3.5 3.5 0 0 0 279.2 104.4 M 279.2 97.4 L 292.4 97.4 M 279.2 104.4 L 292.4 104.4" fill="none" stroke="#d6b656" stroke-width="1.25"/><ellipse data-dediren-icon-part="side-cylinder-end" cx="292.4" cy="100.9" rx="3.5" ry="3.5" fill="#fff2cc" stroke="#d6b656" stroke-width="1.25"/></g><text x="175.0" y="139.5" text-anchor="middle" dominant-baseline="middle" fill="#3f3000" font-size="14.0" textLength="136.5" lengthAdjust="spacing">Tietojärjestelmähakija</text></g><g data-dediren-node-id="ba-ulosotto"><rect data-dediren-node-shape="archimate_rectangle" x="451.0" y="313.0" width="190.0" height="80.0" rx="0" fill="#fff2cc" stroke="#d6b656" stroke-width="1.25"/><g data-dediren-node-decorator="archimate_business_actor" data-dediren-icon-kind="actor" data-dediren-icon-size="22"><ellipse cx="624.0" cy="323.4" rx="3.5" ry="4.4" fill="#fff2cc" stroke="#d6b656" stroke-width="1.25"/><path d="M 624.0 329.6 L 624.0 334.8 M 617.8 332.2 L 624.0 331.8 L 630.2 332.2 M 624.0 334.8 L 618.7 341.0 M 624.0 334.8 L 629.3 341.0" fill="none" stroke="#d6b656" stroke-width="1.25" stroke-linecap="round" stroke-linejoin="round"/></g><text x="546.0" y="368.5" text-anchor="middle" dominant-baseline="middle" fill="#3f3000" font-size="14.0" textLength="84.0" lengthAdjust="spacing">Ulosottolaitos</text></g><g data-dediren-node-id="ba-ork"><rect data-dediren-node-shape="archimate_rectangle" x="942.0" y="249.5" width="260.0" height="80.0" rx="0" fill="#fff2cc" stroke="#d6b656" stroke-width="1.25"/><g data-dediren-node-decorator="archimate_business_actor" data-dediren-icon-kind="actor" data-dediren-icon-size="22"><ellipse cx="1185.0" cy="259.9" rx="3.5" ry="4.4" fill="#fff2cc" stroke="#d6b656" stroke-width="1.25"/><path d="M 1185.0 266.1 L 1185.0 271.3 M 1178.8 268.7 L 1185.0 268.3 L 1191.2 268.7 M 1185.0 271.3 L 1179.7 277.5 M 1185.0 271.3 L 1190.3 277.5" fill="none" stroke="#d6b656" stroke-width="1.25" stroke-linecap="round" stroke-linejoin="round"/></g><text x="1072.0" y="305.0" text-anchor="middle" dominant-baseline="middle" fill="#3f3000" font-size="14.0" textLength="179.6" lengthAdjust="spacing">Oikeusrekisterikeskus (ORK)</text></g><g data-dediren-node-id="bp-lupa-haku"><rect data-dediren-node-shape="archimate_rounded_rectangle" x="371.0" y="12.0" width="270.0" height="80.0" rx="6" fill="#fff2cc" stroke="#d6b656" stroke-width="1.25"/><g data-dediren-node-decorator="archimate_business_process" data-dediren-icon-kind="process" data-dediren-icon-size="22"><path data-dediren-icon-part="process-arrow" d="M 613.0 26.3 L 626.6 26.3 L 626.6 21.0 L 635.0 28.9 L 626.6 36.8 L 626.6 31.6 L 613.0 31.6 Z" fill="#fff2cc" stroke="#d6b656" stroke-width="1.25"/></g><text x="506.0" y="67.5" text-anchor="middle" dominant-baseline="middle" fill="#3f3000" font-size="14.0" textLength="199.6" lengthAdjust="spacing">Hae tietojärjestelmähakijan lupa</text></g><g data-dediren-node-id="bp-lupaluonnos"><rect data-dediren-node-shape="archimate_rounded_rectangle" x="707.0" y="20.5" width="170.0" height="80.0" rx="6" fill="#fff2cc" stroke="#d6b656" stroke-width="1.25"/><g data-dediren-node-decorator="archimate_business_process" data-dediren-icon-kind="process" data-dediren-icon-size="22"><path data-dediren-icon-part="process-arrow" d="M 849.0 34.8 L 862.6 34.8 L 862.6 29.5 L 871.0 37.4 L 862.6 45.3 L 862.6 40.1 L 849.0 40.1 Z" fill="#fff2cc" stroke="#d6b656" stroke-width="1.25"/></g><text x="792.0" y="68.0" text-anchor="middle" dominant-baseline="middle" fill="#3f3000" font-size="14.0"><tspan x="792.0" dy="0" textLength="34.2" lengthAdjust="spacing">Laadi</tspan><tspan x="792.0" dy="16.0" textLength="75.4" lengthAdjust="spacing">lupaluonnos</tspan></text></g><g data-dediren-node-id="bp-toimita-lomakkeet"><rect data-dediren-node-shape="archimate_rounded_rectangle" x="952.5" y="84.0" width="240.0" height="80.0" rx="6" fill="#fff2cc" stroke="#d6b656" stroke-width="1.25"/><g data-dediren-node-decorator="archimate_business_process" data-dediren-icon-kind="process" data-dediren-icon-size="22"><path data-dediren-icon-part="process-arrow" d="M 1164.5 98.3 L 1178.1 98.3 L 1178.1 93.0 L 1186.5 100.9 L 1178.1 108.8 L 1178.1 103.6 L 1164.5 103.6 Z" fill="#fff2cc" stroke="#d6b656" stroke-width="1.25"/></g><text x="1072.5" y="131.5" text-anchor="middle" dominant-baseline="middle" fill="#3f3000" font-size="14.0"><tspan x="1072.5" dy="0" textLength="98.8" lengthAdjust="spacing">Toimita tiedot ja</tspan><tspan x="1072.5" dy="16.0" textLength="118.0" lengthAdjust="spacing">liikennöintisopimus</tspan></text></g><g data-dediren-node-id="bp-yhteistestaus"><rect data-dediren-node-shape="archimate_rounded_rectangle" x="1284.3" y="232.5" width="190.0" height="80.0" rx="6" fill="#fff2cc" stroke="#d6b656" stroke-width="1.25"/><g data-dediren-node-decorator="archimate_business_process" data-dediren-icon-kind="process" data-dediren-icon-size="22"><path data-dediren-icon-part="process-arrow" d="M 1446.3 246.8 L 1460.0 246.8 L 1460.0 241.5 L 1468.3 249.4 L 1460.0 257.3 L 1460.0 252.1 L 1446.3 252.1 Z" fill="#fff2cc" stroke="#d6b656" stroke-width="1.25"/></g><text x="1379.3" y="288.0" text-anchor="middle" dominant-baseline="middle" fill="#3f3000" font-size="14.0" textLength="84.0" lengthAdjust="spacing">Yhteistestaus</text></g><g data-dediren-node-id="bp-lupapaatos"><rect data-dediren-node-shape="archimate_rounded_rectangle" x="1573.0" y="313.0" width="160.0" height="80.0" rx="6" fill="#fff2cc" stroke="#d6b656" stroke-width="1.25"/><g data-dediren-node-decorator="archimate_business_process" data-dediren-icon-kind="process" data-dediren-icon-size="22"><path data-dediren-icon-part="process-arrow" d="M 1705.0 327.3 L 1718.6 327.3 L 1718.6 322.0 L 1727.0 329.9 L 1718.6 337.8 L 1718.6 332.6 L 1705.0 332.6 Z" fill="#fff2cc" stroke="#d6b656" stroke-width="1.25"/></g><text x="1653.0" y="368.5" text-anchor="middle" dominant-baseline="middle" fill="#3f3000" font-size="14.0" textLength="81.3" lengthAdjust="spacing">Myönnä lupa</text></g><g data-dediren-node-id="bp-tuotanto"><rect data-dediren-node-shape="archimate_rounded_rectangle" x="1831.0" y="173.0" width="190.0" height="80.0" rx="6" fill="#fff2cc" stroke="#d6b656" stroke-width="1.25"/><g data-dediren-node-decorator="archimate_business_process" data-dediren-icon-kind="process" data-dediren-icon-size="22"><path data-dediren-icon-part="process-arrow" d="M 1993.0 187.3 L 2006.6 187.3 L 2006.6 182.0 L 2015.0 189.9 L 2006.6 197.8 L 2006.6 192.6 L 1993.0 192.6 Z" fill="#fff2cc" stroke="#d6b656" stroke-width="1.25"/></g><text x="1926.0" y="220.5" text-anchor="middle" dominant-baseline="middle" fill="#3f3000" font-size="14.0"><tspan x="1926.0" dy="0" textLength="64.5" lengthAdjust="spacing">Valmistele</tspan><tspan x="1926.0" dy="16.0" textLength="89.1" lengthAdjust="spacing">tuotantokäyttö</tspan></text></g><g data-dediren-node-id="con-lupa"><rect data-dediren-node-shape="archimate_rectangle" x="2087.0" y="321.5" width="270.0" height="80.0" rx="0" fill="#fff2cc" stroke="#d6b656" stroke-width="1.25"/><g data-dediren-node-decorator="archimate_contract" data-dediren-icon-kind="contract" data-dediren-icon-size="22"><path data-dediren-icon-part="contract-document-body" d="M 2329.0 330.5 L 2349.2 330.5 L 2349.2 346.3 L 2329.0 346.3 Z" fill="#fff2cc" stroke="#d6b656" stroke-width="1.25"/><path data-dediren-icon-part="contract-lines" d="M 2329.0 335.8 L 2349.2 335.8 M 2329.0 341.1 L 2349.2 341.1" fill="none" stroke="#d6b656" stroke-width="1.25"/></g><text x="2222.0" y="377.0" text-anchor="middle" dominant-baseline="middle" fill="#3f3000" font-size="14.0" textLength="174.7" lengthAdjust="spacing">Tietojärjestelmähakijan lupa</text></g><g data-dediren-node-id="con-liikennointi"><rect data-dediren-node-shape="archimate_rectangle" x="1268.0" y="92.5" width="240.0" height="80.0" rx="0" fill="#fff2cc" stroke="#d6b656" stroke-width="1.25"/><g data-dediren-node-decorator="archimate_contract" data-dediren-icon-kind="contract" data-dediren-icon-size="22"><path data-dediren-icon-part="contract-document-body" d="M 1480.0 101.5 L 1500.2 101.5 L 1500.2 117.3 L 1480.0 117.3 Z" fill="#fff2cc" stroke="#d6b656" stroke-width="1.25"/><path data-dediren-icon-part="contract-lines" d="M 1480.0 106.8 L 1500.2 106.8 M 1480.0 112.1 L 1500.2 112.1" fill="none" stroke="#d6b656" stroke-width="1.25"/></g><text x="1388.0" y="148.0" text-anchor="middle" dominant-baseline="middle" fill="#3f3000" font-size="14.0" textLength="122.7" lengthAdjust="spacing">Liikennöintisopimus</text></g><g data-dediren-node-id="bo-tunnus"><rect data-dediren-node-shape="archimate_rectangle" x="2443.0" y="80.5" width="190.0" height="80.0" rx="0" fill="#fff2cc" stroke="#d6b656" stroke-width="1.25"/><g data-dediren-node-decorator="archimate_business_object" data-dediren-icon-kind="object" data-dediren-icon-size="22"><path data-dediren-icon-part="document-body" d="M 2605.0 89.5 L 2625.2 89.5 L 2625.2 105.3 L 2605.0 105.3 Z" fill="#fff2cc" stroke="#d6b656" stroke-width="1.25"/><path data-dediren-icon-part="document-header" d="M 2605.0 94.3 L 2625.2 94.3" fill="none" stroke="#d6b656" stroke-width="1.25"/></g><text x="2538.0" y="128.0" text-anchor="middle" dominant-baseline="middle" fill="#3f3000" font-size="14.0"><tspan x="2538.0" dy="0" textLength="80.9" lengthAdjust="spacing">Hakijatunnus</tspan><tspan x="2538.0" dy="16.0" textLength="91.7" lengthAdjust="spacing">(SFTP-tunnus)</tspan></text></g><g data-dediren-node-id="bsvc-tjhaku"><rect data-dediren-node-shape="archimate_rounded_rectangle" x="2087.0" y="181.5" width="290.0" height="80.0" rx="6" fill="#fff2cc" stroke="#d6b656" stroke-width="1.25"/><g data-dediren-node-decorator="archimate_business_service" data-dediren-icon-kind="service" data-dediren-icon-size="22"><rect x="2349.0" y="193.1" width="22.0" height="11.0" rx="4.0" fill="#fff2cc" stroke="#d6b656" stroke-width="1.25"/></g><text x="2232.0" y="237.0" text-anchor="middle" dominant-baseline="middle" fill="#3f3000" font-size="14.0" textLength="168.5" lengthAdjust="spacing">Tietojärjestelmähakeminen</text></g></g></svg>
